<svg id="icon-3-white" xmlns="http://www.w3.org/2000/svg" width="21.281" height="21.271" viewBox="0 0 21.281 21.271">
  <path id="Shape" d="M20.927,34.351V27.158a1.064,1.064,0,0,0-1.064-1.064h-.45a1.064,1.064,0,0,0-1.032.813A4.773,4.773,0,0,1,17,29.308a9.165,9.165,0,0,1-3.037-.25l.66-1.545a1.064,1.064,0,0,0-.43-1.334l-.714-.427a1.053,1.053,0,0,0-1.358.222c-.15.175-.337.385-.552.618l-.745-.446a.355.355,0,1,0-.365.608l.605.364q-.259.262-.555.542l-.749-.449a.355.355,0,1,0-.365.608l.568.34q-.289.255-.6.513l-.66-.4a.355.355,0,1,0-.365.608l.428.257c-.267.2-.546.4-.834.588l-.648-.39a.355.355,0,1,0-.365.608l.34.2a12.381,12.381,0,0,1-2.871,1.279,8.887,8.887,0,0,1-1.9.342A2.385,2.385,0,0,0,.038,33.476,2.225,2.225,0,0,0,0,33.9a3.614,3.614,0,0,0,3.547,3.9H19.153a2.13,2.13,0,0,0,2.128-2.128v-.709a.707.707,0,0,0-.355-.611Zm-1.858-7.274a.36.36,0,0,1,.344-.273h.45a.355.355,0,0,1,.355.355v4.256l-.568-.426a.357.357,0,0,1-.142-.284v-.383a1.064,1.064,0,0,0-.991-1.061c-.159-.01-.327-.01-.5-.006A5.593,5.593,0,0,0,19.068,27.077ZM17.373,30a9.453,9.453,0,0,1,1.1-.028.355.355,0,0,1,.328.355v.383a1.07,1.07,0,0,0,.426.851l.992.745v1.951h-5.58c1.409-.58,2.493-1.087,2.979-1.321a.836.836,0,0,0-.2-1.574,6.088,6.088,0,0,1-3.079-1.481A11.3,11.3,0,0,0,17.373,30Zm-8.323.4L8.6,30.127c.284-.2.553-.4.816-.6l.693.416a.355.355,0,0,0,.365-.608L10,29.054c.207-.173.409-.346.6-.516l.569.342a.355.355,0,0,0,.365-.608l-.4-.236q.3-.284.55-.545l.543.326a.355.355,0,0,0,.365-.608l-.408-.245c.181-.2.341-.378.472-.532a.349.349,0,0,1,.451-.071l.715.428a.355.355,0,0,1,.145.444l-.819,1.915a.355.355,0,0,0,.009.3c.908,1.812,3.184,2.428,4.114,2.607a.127.127,0,0,1,.106.13.115.115,0,0,1-.068.106c-.666.319-2.454,1.155-4.662,1.982-.051.018-.1.035-.151.055-.319.118-.619.223-.9.313-.256.081-.5.153-.728.215a5.5,5.5,0,0,0-3.982-3.064,4.424,4.424,0,0,0-.709-.076H5.7A14.383,14.383,0,0,0,7.94,30.563l.745.447A.355.355,0,0,0,9.05,30.4ZM.735,33.607c.205-1.108,1.685-1.129,1.77-1.129.182-.011.366-.029.551-.052H6.174a3.8,3.8,0,0,1,.584.065,4.778,4.778,0,0,1,3.4,2.541,11.261,11.261,0,0,1-2.706.284H4.966C3.559,35.316,1.357,34.08.72,33.7c0-.033.009-.065.015-.1Zm19.837,2.064a1.419,1.419,0,0,1-1.419,1.419H3.547A2.829,2.829,0,0,1,.756,34.543a10.488,10.488,0,0,0,4.21,1.483H7.448a13.008,13.008,0,0,0,4.36-.709c.3-.094.606-.2.938-.325l0,0,.081-.028h7.74Z" transform="translate(0 -16.528)" fill="#fff"/>
  <path id="Shape-2" data-name="Shape" d="M44.355,54.709H47.9a.355.355,0,0,0,0-.709H44.355a.355.355,0,0,0,0,.709Z" transform="translate(-28.394 -34.857)" fill="#fff"/>
  <path id="Shape-3" data-name="Shape" d="M43.255,23.042a.352.352,0,0,0,.251-.1l1.957-1.956a.355.355,0,1,0-.5-.5L43,22.436a.355.355,0,0,0,.251.605Z" transform="translate(-27.684 -13.156)" fill="#fff"/>
  <path id="Shape-4" data-name="Shape" d="M11.212,11.523a.355.355,0,0,0,.086.7.36.36,0,0,0,.086-.01l.375-.094a13.679,13.679,0,0,1-.461,1.509.355.355,0,0,0,.663.253,14.574,14.574,0,0,0,.578-1.956l.851-.213a.355.355,0,0,0-.172-.688l-.521.13c.059-.325.111-.658.154-1l.79-.2a.355.355,0,0,0-.172-.688l-.535.134c.023-.253.042-.516.057-.788l.65-.162a.355.355,0,0,0-.172-.688l-.45.112q.009-.4,0-.775l.617-.154a.355.355,0,0,0-.172-.688l-.461.116c-.011-.259-.025-.5-.043-.709a.355.355,0,0,1,.269-.372l.806-.2a.355.355,0,0,1,.417.213l.777,1.933a.355.355,0,0,0,.217.2c1.926.638,3.969-.532,4.759-1.068a.121.121,0,0,1,.16.021.117.117,0,0,1,.026.125c-.1.284-.275.769-.515,1.4a.355.355,0,1,0,.663.252c.243-.638.421-1.131.519-1.412a.835.835,0,0,0-1.252-.973,6.089,6.089,0,0,1-3.228,1.129A11.33,11.33,0,0,0,18.819,4.85a9.285,9.285,0,0,1,.756-.8.355.355,0,0,1,.482.018l.271.271a1.068,1.068,0,0,0,.9.3l1.229-.177,1.38,1.379L21.313,8.371a.355.355,0,0,0,.5.5L24.59,6.1l.5.5a1.419,1.419,0,0,1,0,2.006l-2.759,2.759a.355.355,0,1,0,.5.5L25.6,9.107a2.128,2.128,0,0,0,0-3.009l-.5-.5a.72.72,0,0,0-.679-.177l-.073-.073L19.321.33a1.092,1.092,0,0,0-1.5,0L17.5.649a1.064,1.064,0,0,0-.156,1.3,4.773,4.773,0,0,1,.722,2.674A9.166,9.166,0,0,1,15.739,6.6l-.626-1.557A1.064,1.064,0,0,0,13.866,4.4l-.809.2a1.061,1.061,0,0,0-.8,1.119c.02.238.035.52.047.826l-.842.211a.355.355,0,0,0,.086.7.343.343,0,0,0,.086-.011l.681-.17q0,.376-.01.776l-.843.211a.355.355,0,0,0,.086.7.343.343,0,0,0,.086-.011l.635-.159q-.026.408-.066.79l-.741.185a.355.355,0,0,0,.086.7.361.361,0,0,0,.086-.011l.476-.119c-.049.345-.106.681-.171,1Zm6.739-9.937A.36.36,0,0,1,18,1.15L18.32.831a.365.365,0,0,1,.5,0l3.01,3.01-.7.1a.355.355,0,0,1-.3-.1l-.271-.271a1.064,1.064,0,0,0-1.451-.05c-.12.106-.239.224-.36.352a5.584,5.584,0,0,0-.8-2.286Z" transform="translate(-7.062 -0.029)" fill="#fff"/>
</svg>
