<svg xmlns="http://www.w3.org/2000/svg" width="19.604" height="19.604" viewBox="0 0 19.604 19.604">
  <g id="icon-5-white" transform="translate(-1 -1)">
    <path id="Path_6" data-name="Path 6" d="M19.339,3.846a1.252,1.252,0,0,0-.632.176V3.529a1.266,1.266,0,0,0-1.265-1.265,1.252,1.252,0,0,0-.632.176V2.265a1.265,1.265,0,1,0-2.529,0v.176a1.252,1.252,0,0,0-.632-.176,1.266,1.266,0,0,0-1.265,1.265v2.4a1.925,1.925,0,0,0-1.3-.507.913.913,0,0,0-.912.912.93.93,0,0,0,.007.11c.008.067.027.271.052.565-.02,0-.039-.006-.058-.006a1.252,1.252,0,0,0-.632.176V6.691A1.266,1.266,0,0,0,8.272,5.427,1.252,1.252,0,0,0,7.64,5.6V5.427a1.265,1.265,0,1,0-2.529,0V5.6a1.252,1.252,0,0,0-.632-.176A1.266,1.266,0,0,0,3.213,6.691V9.1a1.925,1.925,0,0,0-1.3-.507A.913.913,0,0,0,1,9.5a.938.938,0,0,0,.007.11c.026.218.2,2.271.277,4.022a6.013,6.013,0,0,0,.75,2.653L2.9,17.84v2.131a.633.633,0,0,0,.632.632H9.221a.633.633,0,0,0,.632-.632V17.887a5.674,5.674,0,0,0,1.581-3.946v-.4l.632,1.139v2.131a.633.633,0,0,0,.632.632H18.39a.633.633,0,0,0,.632-.632V14.725A5.674,5.674,0,0,0,20.6,10.779V5.11a1.266,1.266,0,0,0-1.265-1.265Zm-1.9-.949a.633.633,0,0,1,.632.632V8.272H16.809V3.529A.633.633,0,0,1,17.442,2.9Zm-2.529-.632a.632.632,0,1,1,1.265,0V8.272H14.912Zm-1.9,1.265a.632.632,0,1,1,1.265,0V8.287a2.456,2.456,0,0,0-1.229.486l-.036-.027V3.529ZM3.529,18.074h.632v1.9H3.529Zm4.427,0v1.9H7.324v-1.9Zm-1.265,1.9H6.059v-1.9h.632Zm-1.265,0H4.794v-1.9h.632Zm3.162,0v-1.9h.632v1.9Zm2.213-6.03a5.044,5.044,0,0,1-1.4,3.5h-6l-.813-1.463a5.382,5.382,0,0,1-.671-2.373c-.072-1.693-.247-3.79-.281-4.07a.338.338,0,0,1,0-.035.28.28,0,0,1,.28-.28,1.3,1.3,0,0,1,1.3,1.3v1.47A1.452,1.452,0,0,0,4.021,13.3l.283-.566a.823.823,0,0,1-.458-.74v-5.3a.632.632,0,0,1,1.265,0V11.75h.632V5.427a.632.632,0,1,1,1.265,0V11.75H7.64V6.691a.632.632,0,0,1,1.265,0V11.75h.632V8.272a.632.632,0,1,1,1.265,0Zm1.9.971h.632v1.9H12.7Zm4.427,0v1.9h-.632v-1.9Zm-1.265,1.9h-.632v-1.9h.632Zm-1.265,0h-.632v-1.9H14.6Zm3.162,0v-1.9h.632v1.9Zm2.213-6.03a5.044,5.044,0,0,1-1.4,3.5h-6l-.813-1.463a5.421,5.421,0,0,1-.322-.695V8.272a1.264,1.264,0,0,0-.554-1.045c-.036-.448-.065-.764-.076-.853a.327.327,0,0,1,0-.035.28.28,0,0,1,.28-.28,1.3,1.3,0,0,1,1.3,1.3v1.7l.591.444a2.873,2.873,0,0,1,1.006,1.4l.6-.2a3.5,3.5,0,0,0-1.005-1.521,1.835,1.835,0,0,1,.968-.276h4.165V5.11a.632.632,0,1,1,1.265,0Z" transform="translate(0)" fill="#fff"/>
    <path id="Path_7" data-name="Path 7" d="M9.935,37a1.236,1.236,0,0,1-.687,1.111l-.2.1A1.878,1.878,0,0,0,8,39.9h.645a1.236,1.236,0,0,1,.687-1.111l.2-.1A1.878,1.878,0,0,0,10.58,37Z" transform="translate(-4.743 -24.656)" fill="#fff"/>
    <path id="Path_8" data-name="Path 8" d="M20.858,39.6ZM18.6,41.213A1.612,1.612,0,1,1,20.213,39.6,1.614,1.614,0,0,1,18.6,41.213Z" transform="translate(-10.628 -25.027)" fill="none" stroke="#fff" stroke-width="0.5"/>
  </g>
</svg>
