<svg xmlns="http://www.w3.org/2000/svg" width="19.377" height="19.327" viewBox="0 0 19.377 19.327">
  <path id="icon-2" d="M18.564,3.838a4.391,4.391,0,0,0-2.252-1.205L14.6,2.291,14.281,1H6.936L6.613,2.292l-1.708.342A4.406,4.406,0,0,0,1.4,6.408L.92,10.22l.2.1a9.019,9.019,0,0,0,3.568.652v9.357H16.531V10.971a9.017,9.017,0,0,0,3.568-.652l.2-.1-.476-3.812a4.432,4.432,0,0,0-1.257-2.57Zm-4-.919,1.625.325A3.784,3.784,0,0,1,19.2,6.485l.271,2.165a9.869,9.869,0,0,1-2.941.451V8.245a.628.628,0,0,1,.183-.441l.349-.349-.441-.441-.349.349a1.256,1.256,0,0,0-.365.882v.236H11.544V5.845a2.685,2.685,0,0,1,.973.621l.732.732Zm.1,8.679H12.167v-.623h2.494Zm-2.494.623h2.494v1.559a.312.312,0,0,1-.312.312h-1.87a.312.312,0,0,1-.312-.312Zm2.494-1.87H12.167a.624.624,0,0,0-.623.623v1.247H5.309V9.1H9.673a.624.624,0,0,0,.623.623h.623a.624.624,0,0,0,.623-.623h4.364v3.117h-.623V10.975A.624.624,0,0,0,14.661,10.352ZM10.609,5.676a2.721,2.721,0,0,1,.312.02V9.1H10.3V5.7A2.721,2.721,0,0,1,10.609,5.676ZM8.907,2.87h3.4l-1.7,2.011Zm5.119-.32L12.956,6.025a3.3,3.3,0,0,0-1.725-.914l2.651-3.133Zm-.66-.927-.527.623H8.379l-.527-.623Zm-6.031.354L9.985,5.11a3.3,3.3,0,0,0-1.725.914L7.191,2.55Zm-4.24,2.3A3.771,3.771,0,0,1,5.028,3.245L6.653,2.92,7.969,7.2,8.7,6.466a2.685,2.685,0,0,1,.973-.621V8.481H5.309V8.245a1.254,1.254,0,0,0-.365-.882l-.349-.349-.441.441L4.5,7.8a.628.628,0,0,1,.183.441V9.1A9.871,9.871,0,0,1,1.745,8.65l.271-2.165A3.8,3.8,0,0,1,3.094,4.279ZM1.6,9.843l.07-.563a10.822,10.822,0,0,0,3.02.445v.62A9.688,9.688,0,0,1,1.6,9.843ZM5.309,19.7V12.846h6.235v.935a.936.936,0,0,0,.935.935h1.87a.936.936,0,0,0,.935-.935v-.935h.623V19.7Zm11.222-9.359v-.62a10.825,10.825,0,0,0,3.02-.444l.07.563A9.7,9.7,0,0,1,16.531,10.345Z" transform="translate(-0.92 -1)" fill="#333"/>
</svg>
