<svg xmlns="http://www.w3.org/2000/svg" width="19.281" height="19.28" viewBox="0 0 19.281 19.28">
  <path id="icon-4" d="M3.981,19.972a1.062,1.062,0,0,0,1.5,0l.311-.311H7.637a1.545,1.545,0,0,0,1.1-.455l4.247-4.247a1.545,1.545,0,0,0,.456-1.1V12.015l1.866-1.866v.182a.639.639,0,0,0,.2.465.521.521,0,0,0,.344.151h.077v8.715a.623.623,0,0,0,.622.622h.622a.623.623,0,0,0,.622-.622V10.942a.661.661,0,0,0,.44-.177.6.6,0,0,0,.182-.434V9.087a.623.623,0,0,0-.622-.622H16.549a1.053,1.053,0,0,0-.311-.751l-.649-.649.649-.649.884.884a1.85,1.85,0,1,0,2.617-2.617l-.975-.975a1.708,1.708,0,0,0-.127-.115l.327-.817a.9.9,0,0,0-.7-1.228l-3.489-.537a1.018,1.018,0,0,0-1.138.8l-.185.925L11.4,5.384A4.757,4.757,0,0,0,8.117,7.2L6.633,9.1a3.14,3.14,0,0,0-2.024.917L3.2,11.428a2.189,2.189,0,0,0-.389,2.567L1.7,15.412l-.388.388a1.062,1.062,0,0,0,0,1.5Zm8.836-6.113a.938.938,0,0,1-.273.66L8.3,18.766a.928.928,0,0,1-.66.273H6.416l6.4-6.4Zm3.038-3.534h0Zm.694,9.336V10.946h.622v8.715ZM17.793,9.087l.008,1.229s-.011.009-.061.007H15.927v-.8l.311-.311a1.072,1.072,0,0,0,.106-.129Zm-1.866-.622a.436.436,0,0,1-.129.311l-2.534,2.534-.314-.942a5.037,5.037,0,0,0-3.8-3.356,4.162,4.162,0,0,1,5.692.187l.955.955A.436.436,0,0,1,15.927,8.465ZM13.716,5.713l1.276-1.7.559.348L14.044,5.867c-.108-.054-.216-.108-.328-.154Zm-.626-.2a4.777,4.777,0,0,0-.893-.141l1.619-2.09.646.4Zm2.054,1.122a4.817,4.817,0,0,0-.546-.44l.708-.708.493.493ZM19.3,5.125a1.212,1.212,0,0,1,.188,1.485L18.324,5.446l-.44.44,1.163,1.163a1.212,1.212,0,0,1-1.485-.188L15.745,5.045l.9-.9a1.191,1.191,0,0,1,1.684,0ZM14.246,1.932a.392.392,0,0,1,.434-.3l3.488.537a.282.282,0,0,1,.219.383l-.3.74a1.806,1.806,0,0,0-.608-.109A1.825,1.825,0,0,0,16.2,3.71l-.2.2L14.088,2.717Zm-9.2,8.523a2.528,2.528,0,0,1,1.8-.745,2.556,2.556,0,0,1,.652.085l1.084.288L7.019,11.647a.844.844,0,0,1-1.153,0L4.861,10.642ZM3.5,12.029,4.823,13.35l.44-.44L3.928,11.575l.493-.493,1.005,1.005a1.437,1.437,0,0,0,2.033,0L9.048,10.5a.588.588,0,0,1,.524-.153l.048.013a.569.569,0,0,1,.232.945L6.2,14.959a1.191,1.191,0,0,1-1.684,0l-.876-.876A1.553,1.553,0,0,1,3.5,12.029ZM3.2,14.522l.876.876a1.812,1.812,0,0,0,2.563,0l3.657-3.657a1.191,1.191,0,0,0-.574-2L7.659,9.193c-.089-.024-.18-.037-.271-.053L8.606,7.581l.018-.02a4.419,4.419,0,0,1,3.736,3l.412,1.237L5.665,18.91,2.347,15.593l.842-1.078ZM1.751,16.24l.182-.182L5.225,19.35l-.182.182a.45.45,0,0,1-.622,0l-2.67-2.67a.44.44,0,0,1,0-.622Z" transform="translate(-1 -1.003)" fill="#333"/>
</svg>
