<svg xmlns="http://www.w3.org/2000/svg" width="20.051" height="18.327" viewBox="0 0 20.051 18.327">
  <path id="icon-1" d="M6.02,12.911,2.43,5H4.916l3.176,7.023.356-.152.164.2a15.232,15.232,0,0,0,2.252,2.285h5.066c.682.011,1.377,0,2.069,0h2.759a1.726,1.726,0,0,1,1.724,1.724v1.379a5.869,5.869,0,0,1-5.863,5.863h-3.43a6.543,6.543,0,0,1-6.357-4.963l-1.31-5.239Zm15.748,5.013A11.06,11.06,0,0,1,13,22.293H11.207a5.867,5.867,0,0,0,1.981.345h3.43A5.178,5.178,0,0,0,21.768,17.924Zm-5.15-3.563h0ZM8.239,12.71l-1.906.817L7.5,18.2A5.849,5.849,0,0,0,9.865,21.6H13a10.362,10.362,0,0,0,8.792-4.93v-.588a1.036,1.036,0,0,0-1.035-1.035h-9.92a.9.9,0,0,0-.808.5l-.617-.309a1.591,1.591,0,0,1,.616-.661A17.232,17.232,0,0,1,8.239,12.71Zm-1.585-.071.8-.344L4.476,5.69H3.513ZM18,19.189a.345.345,0,1,0-.345-.345A.345.345,0,0,0,18,19.189Zm1.035-1.035a.345.345,0,1,0-.345-.345A.345.345,0,0,0,19.033,18.154Zm1.035-1.035a.345.345,0,1,0-.345-.345A.345.345,0,0,0,20.067,17.119Zm-6.251,3.1.086-.684a8.6,8.6,0,0,1-2.417-1.076,8.035,8.035,0,0,1-1.2-1.607l-.25-.563-.63.28.25.563a5.34,5.34,0,0,0,2.137,2.393A5.168,5.168,0,0,0,13.817,20.221Z" transform="translate(-2.43 -5)" fill="#333"/>
</svg>
