<svg xmlns="http://www.w3.org/2000/svg" width="21.604" height="18.507" viewBox="0 0 21.604 18.507">
  <g id="icon-6" transform="translate(0 -36.692)">
    <g id="Group_404" data-name="Group 404" transform="translate(0 46.143)">
      <g id="Group_403" data-name="Group 403" transform="translate(0 0)">
        <path id="Path_646" data-name="Path 646" d="M16.2,262.519v2.025H2.3l2.9-2.9-.955-.955L.2,264.743a.674.674,0,0,0,0,.955l4.051,4.051.955-.955-2.9-2.9H16.878a.674.674,0,0,0,.675-.675v-2.7Z" transform="translate(0 -260.692)" fill="#333"/>
      </g>
    </g>
    <g id="Group_406" data-name="Group 406" transform="translate(4.051 36.692)">
      <g id="Group_405" data-name="Group 405" transform="translate(0 0)">
        <path id="Path_647" data-name="Path 647" d="M113.359,40.743l-4.051-4.051-.955.955,2.9,2.9H96.679A.675.675,0,0,0,96,41.22v2.7h1.35V41.895h13.9l-2.9,2.9.955.955,4.051-4.051A.674.674,0,0,0,113.359,40.743Z" transform="translate(-96.004 -36.692)" fill="#333"/>
      </g>
    </g>
  </g>
</svg>
