<svg xmlns="http://www.w3.org/2000/svg" width="19.587" height="17.535" viewBox="0 0 19.587 17.535">
  <g id="shop" transform="translate(-99.98 -10.48)">
    <path id="Path_1549" data-name="Path 1549" d="M119.567,25.52v2.219a.5.5,0,0,1-.515.276q-3.709-.009-7.419,0a1.441,1.441,0,0,1-.172,0,.384.384,0,0,1-.339-.337.372.372,0,0,1,.263-.4.983.983,0,0,1,.263-.026h7.139V26.022H100.757v1.224h7.14a.972.972,0,0,1,.282.032.369.369,0,0,1,.246.389A.386.386,0,0,1,108.1,28a.992.992,0,0,1-.153.007q-3.747,0-7.5,0a.478.478,0,0,1-.477-.276V25.52a.459.459,0,0,1,.493-.28c.213.013.428,0,.641,0,0-.064.01-.095.01-.126q0-3.768,0-7.536a.318.318,0,0,0-.1-.208,1.9,1.9,0,0,1-.636-1.461c0-.638,0-1.275,0-1.913a.948.948,0,0,1,.063-.334c.376-.954.758-1.9,1.139-2.856a.419.419,0,0,1,.491-.329h15.377a.42.42,0,0,1,.491.329q.571,1.426,1.14,2.855a.8.8,0,0,1,.062.277c0,.688.007,1.377,0,2.066a1.773,1.773,0,0,1-.608,1.334.359.359,0,0,0-.125.3q0,3.691,0,7.384v.222c.234,0,.444.01.652,0A.455.455,0,0,1,119.567,25.52Zm-15.795-8.4a1.982,1.982,0,0,1-1.866.7v7.408h1.055V19.4c0-.378.124-.5.507-.5h4.437c.429,0,.538.111.538.546v5.78h9.2V17.8a1.925,1.925,0,0,1-1.868-.7,1.9,1.9,0,0,1-3,0,1.9,1.9,0,0,1-3,.008,1.922,1.922,0,0,1-3.008,0A1.914,1.914,0,0,1,103.773,17.121Zm-.037,8.1h3.932V19.684h-3.932ZM106.38,14.3h-2.224c0,.59-.018,1.164,0,1.737a1.1,1.1,0,0,0,1.082,1.032,1.076,1.076,0,0,0,1.129-.994C106.4,15.492,106.38,14.905,106.38,14.3Zm6.782,0c0,.578-.019,1.144,0,1.708a1.09,1.09,0,0,0,1.162,1.064,1.113,1.113,0,0,0,1.065-1.131c0-.5,0-1.008,0-1.511,0-.042-.008-.084-.012-.131Zm-6,0c0,.579-.014,1.138,0,1.7a1.093,1.093,0,0,0,1.148,1.08,1.111,1.111,0,0,0,1.08-1.134c0-.5,0-.994,0-1.491,0-.048-.008-.1-.013-.152Zm3,0c0,.605-.024,1.192.007,1.776a1.11,1.11,0,0,0,2.212-.022c.024-.56.008-1.121.009-1.682a.253.253,0,0,0-.024-.072Zm6,0v.19c0,.529-.018,1.059.01,1.586a1.111,1.111,0,0,0,2.213-.022c.021-.56.007-1.121.007-1.681a.281.281,0,0,0-.023-.073ZM103.38,14.3h-2.211a.723.723,0,0,0-.013.09c0,.542-.011,1.083.006,1.625a1.11,1.11,0,0,0,2.209.087C103.411,15.507,103.38,14.906,103.38,14.3Zm3.833-.8h2.169v-2.25h-1.868C107.413,12,107.314,12.745,107.213,13.5Zm5.125.006c-.1-.765-.2-1.507-.3-2.25h-1.867v2.25Zm-8.062-.006h2.166c.1-.756.2-1.5.3-2.251h-1.865C104.676,12,104.478,12.742,104.275,13.5Zm10.991,0c-.017-.073-.027-.134-.043-.194q-.2-.756-.4-1.513c-.048-.178-.049-.424-.167-.512s-.362-.043-.55-.045c-.426,0-.851,0-1.3,0l.3,2.265Zm-13.929.01c.706,0,1.373,0,2.041,0,.044,0,.113-.071.128-.12.083-.273.153-.551.226-.827l.352-1.321c-.6,0-1.181,0-1.759,0-.042,0-.1.065-.122.113-.123.293-.238.59-.356.884C101.682,12.658,101.516,13.069,101.337,13.519Zm16.845,0a.241.241,0,0,0,0-.073q-.419-1.055-.842-2.106a.17.17,0,0,0-.119-.091c-.578-.006-1.157,0-1.755,0,.2.744.389,1.469.59,2.19.011.04.1.078.16.08.248.009.5,0,.744,0Z" fill="#f04c28"/>
    <path id="Path_1550" data-name="Path 1550" d="M196.54,182.461a.386.386,0,0,1-.38-.377.394.394,0,0,1,.376-.385.383.383,0,0,1,.385.391A.376.376,0,0,1,196.54,182.461Z" transform="translate(-86.761 -154.452)" fill="#f04c28"/>
    <path id="Path_1551" data-name="Path 1551" d="M204.422,101.424h-2.848c-.365,0-.491-.127-.491-.5q0-1.968,0-3.938c0-.369.125-.5.492-.5h5.734c.353,0,.482.131.482.487q0,1.979,0,3.956c0,.355-.13.487-.482.487Q205.865,101.426,204.422,101.424Zm2.6-4.153h-5.16v3.388c.442,0,.874.006,1.305,0a.424.424,0,0,0,.261-.109c.354-.34.7-.689,1.044-1.038a.4.4,0,0,1,.395-.137.38.38,0,0,1,.168.65c-.2.2-.41.391-.616.585l.036.038h2.565C207.019,99.513,207.019,98.4,207.019,97.271Z" transform="translate(-91.202 -77.59)" fill="#f04c28"/>
    <path id="Path_1552" data-name="Path 1552" d="M214.34,110.064a.859.859,0,0,1,.128-.223c.49-.5.985-.994,1.483-1.487a.375.375,0,0,1,.56-.023.387.387,0,0,1-.024.562q-.739.746-1.485,1.486a.365.365,0,0,1-.436.093A.4.4,0,0,1,214.34,110.064Z" transform="translate(-103.161 -88.166)" fill="#f04c28"/>
  </g>
</svg>
