<svg id="icon-cart" xmlns="http://www.w3.org/2000/svg" width="21.976" height="19.507" viewBox="0 0 21.976 19.507">
  <path id="Path_19" data-name="Path 19" d="M21.828,33.059a.781.781,0,0,0-.63-.324H5.386l-.854-3.385a.782.782,0,0,0-.781-.589H.782a.781.781,0,1,0,0,1.562H3.166L6.789,44.685a.781.781,0,0,0,.754.589H17.3a.781.781,0,1,0,0-1.562H8.159L7.8,42.282H18.6a.781.781,0,0,0,.74-.539l2.6-7.985A.78.78,0,0,0,21.828,33.059Zm-3.8,7.666H7.406L5.779,34.3H20.124Z" transform="translate(0 -28.76)" fill="#f04c28"/>
  <circle id="Ellipse_1" data-name="Ellipse 1" cx="1.594" cy="1.594" r="1.594" transform="translate(5.852 15.536)" fill="#fff"/>
  <path id="Path_20" data-name="Path 20" d="M120.63,377.5A2.371,2.371,0,1,1,123,375.133h0A2.376,2.376,0,0,1,120.63,377.5Zm0-3.2a.813.813,0,1,0,.813.813h0a.813.813,0,0,0-.813-.8Z" transform="translate(-113.183 -357.997)" fill="#f04c28"/>
  <circle id="Ellipse_2" data-name="Ellipse 2" cx="1.594" cy="1.594" r="1.594" transform="translate(15.702 15.536)" fill="#fff"/>
  <path id="Path_21" data-name="Path 21" d="M350.2,377.5a2.371,2.371,0,1,1,2.376-2.371A2.371,2.371,0,0,1,350.2,377.5Zm0-3.2a.813.813,0,1,0,.813.813h0a.813.813,0,0,0-.813-.8Z" transform="translate(-332.906 -357.996)" fill="#f04c28"/>
</svg>
