<svg xmlns="http://www.w3.org/2000/svg" width="45.849" height="55" viewBox="0 0 45.849 55">
  <g id="logo-icon" transform="translate(-1184 -612)">
    <path id="Path_191" data-name="Path 191" d="M70.043,132.241l.138.67a17.709,17.709,0,0,1-13.587,20.867l-.952,5.634H54.222L52.6,168.563l6.887-9.151h7.772a8.5,8.5,0,0,0,8.5-8.5v-28.84a8.5,8.5,0,0,0-8.5-8.5H38.422a8.5,8.5,0,0,0-8.5,8.5v28.84a8.5,8.5,0,0,0,8.5,8.5h9.829l-1.035-6.157a17.691,17.691,0,1,1,21.668-24.211l.554,1.191H62.116l-.251-.343a11.184,11.184,0,1,0,1.89,9.02h-9.9a3.336,3.336,0,1,1,0-6.671" transform="translate(1154.082 498.437)" fill="#191919"/>
    <path id="Path_192" data-name="Path 192" d="M54.312,133.536h0a2.5,2.5,0,0,0,0,4.994h10.9A12.046,12.046,0,1,1,63,129.854h5.584a16.851,16.851,0,0,0-32.143,7.09c0,.532.031,1.055.079,1.574.015.166.04.328.06.493.044.354.1.706.161,1.054q.052.275.112.547c.074.333.161.661.254.987.049.169.093.339.146.507q.2.629.453,1.237c.068.166.143.326.217.489.146.324.3.644.461.958.107.2.224.4.34.6.126.219.257.435.392.647s.281.428.429.636c.126.176.256.347.388.518.17.221.339.444.519.657.077.091.162.176.241.265a17.017,17.017,0,0,0,1.442,1.442c.063.056.123.115.188.17.265.229.54.443.819.655.091.069.182.139.275.206.289.21.584.411.887.6.067.043.137.083.2.125a16.721,16.721,0,0,0,3.391,1.595h0a16.736,16.736,0,0,0,14.456-1.752l.01-.007c.345-.22.678-.456,1.005-.7.072-.054.144-.107.216-.162.295-.227.58-.464.859-.71.095-.084.187-.169.28-.254.259-.24.513-.483.757-.738.1-.1.19-.208.285-.313.232-.255.464-.511.681-.78.08-.1.152-.206.229-.306a16.825,16.825,0,0,0,1-1.457c.125-.2.256-.4.372-.614s.218-.425.325-.639c.124-.246.246-.491.358-.743.093-.21.176-.425.26-.64.106-.271.207-.542.3-.819q.1-.315.2-.634c.086-.3.163-.6.232-.906.047-.2.095-.4.134-.61.066-.343.115-.691.159-1.042.022-.175.052-.348.069-.525.05-.53.082-1.067.082-1.611a16.924,16.924,0,0,0-.345-3.407" transform="translate(1153.625 497.98)" fill="#ea331b"/>
  </g>
</svg>
