<svg xmlns="http://www.w3.org/2000/svg" width="165.274" height="42.285" viewBox="0 0 165.274 42.285">
  <g id="LogoGolfGroup" transform="translate(-5.31 -4.46)">
    <path id="Path_1282" data-name="Path 1282" d="M23.71,18.822a2.563,2.563,0,0,0,0,5.126h7.609a8.6,8.6,0,1,1-1.453-6.935l.195.263h5.63l-.428-.915A13.6,13.6,0,1,0,18.6,34.976l.8,4.732H11.847A6.538,6.538,0,0,1,5.31,33.171V11A6.538,6.538,0,0,1,11.847,4.46H34.021A6.538,6.538,0,0,1,40.558,11V33.171a6.538,6.538,0,0,1-6.537,6.537H28.048l-5.3,7.037L24,39.708h1.093l.733-4.33A13.609,13.609,0,0,0,36.267,19.335l-.106-.517H23.71Z" transform="translate(0 0)" fill="#fff"/>
    <g id="Group_1183" data-name="Group 1183" transform="translate(45.456 12.865)">
      <g id="Group_1181" data-name="Group 1181" transform="translate(0 1.093)">
        <g id="Group_1180" data-name="Group 1180">
          <path id="Path_1284" data-name="Path 1284" d="M115.567,34.2a7.617,7.617,0,0,1-2.207,5.58,7.979,7.979,0,0,1-11.032.03,7.332,7.332,0,0,1-2.258-5.436,7.091,7.091,0,0,1,2.3-5.385,8.045,8.045,0,0,1,9.973-.691,6.655,6.655,0,0,1,2.792,3.737h-4.169a3.445,3.445,0,0,0-3.207-1.881,3.711,3.711,0,0,0-2.881,1.25,4.279,4.279,0,0,0-1.093,2.978,4.513,4.513,0,0,0,1.068,3.072,3.691,3.691,0,0,0,2.927,1.3,4.027,4.027,0,0,0,2.169-.568,2.958,2.958,0,0,0,1.3-1.775h-4.338V33.444h8.63c.008.114.013.241.021.386V34.2Z" transform="translate(-100.07 -26.886)" fill="#fff"/>
          <path id="Path_1285" data-name="Path 1285" d="M181.96,42.073V27.52h3.715V38.811h4.313v3.262Z" transform="translate(-147.267 -27.249)" fill="#fff"/>
          <path id="Path_1286" data-name="Path 1286" d="M207.893,30.782v2.478h4.224v3.262h-4.224v5.55H204.33V27.52h7.939v3.262Z" transform="translate(-160.159 -27.249)" fill="#fff"/>
          <path id="Path_1287" data-name="Path 1287" d="M241.807,34.2a7.617,7.617,0,0,1-2.207,5.58,7.979,7.979,0,0,1-11.032.03,7.332,7.332,0,0,1-2.258-5.436,7.091,7.091,0,0,1,2.3-5.385,8.045,8.045,0,0,1,9.973-.691,6.656,6.656,0,0,1,2.792,3.737H237.2A3.445,3.445,0,0,0,234,30.156a3.711,3.711,0,0,0-2.881,1.25,4.279,4.279,0,0,0-1.093,2.978,4.513,4.513,0,0,0,1.068,3.072,3.691,3.691,0,0,0,2.927,1.3,4.027,4.027,0,0,0,2.169-.568,2.958,2.958,0,0,0,1.3-1.775h-4.338V33.444h8.63c.008.114.013.241.021.386V34.2Z" transform="translate(-172.827 -26.886)" fill="#fff"/>
          <path id="Path_1288" data-name="Path 1288" d="M274.381,42.073l-3.36-4.694h-.038v4.694H267.42V27.52h4.6c.487,0,.877.008,1.169.03a8.864,8.864,0,0,1,1.169.123,4.559,4.559,0,0,1,2.139.894,4.81,4.81,0,0,1,1.8,3.974,4.811,4.811,0,0,1-.949,2.987,4,4,0,0,1-2.669,1.593l3.944,4.953Zm-.364-10.837a2.808,2.808,0,0,0-1.682-.453h-1.356v4.05h1.313q2.44,0,2.44-2.084A1.721,1.721,0,0,0,274.016,31.235Z" transform="translate(-196.521 -27.249)" fill="#fff"/>
          <path id="Path_1289" data-name="Path 1289" d="M309.334,39.823a7.9,7.9,0,0,1-10.82.038,6.93,6.93,0,0,1-2.284-5.253,8.516,8.516,0,0,1,.568-3.11,6.757,6.757,0,0,1,.949-1.631A7.319,7.319,0,0,1,303.9,26.88a7.506,7.506,0,0,1,5.436,2.169,7.186,7.186,0,0,1,2.245,5.376A7.261,7.261,0,0,1,309.334,39.823Zm-2.546-8.372a3.861,3.861,0,0,0-5.753-.038,4.3,4.3,0,0,0-1.093,2.978,4.388,4.388,0,0,0,1.106,3.033,3.71,3.71,0,0,0,2.911,1.3,3.612,3.612,0,0,0,2.834-1.3,4.376,4.376,0,0,0,1.076-2.966A4.441,4.441,0,0,0,306.788,31.451Z" transform="translate(-213.125 -26.88)" fill="#fff"/>
          <path id="Path_1290" data-name="Path 1290" d="M348.273,36.311a9.551,9.551,0,0,1-.25,2.411,4.72,4.72,0,0,1-1.2,2.055,5.448,5.448,0,0,1-4.071,1.576A6.948,6.948,0,0,1,340.487,42a4.667,4.667,0,0,1-1.919-1.2,4.941,4.941,0,0,1-1.229-2.072,6.794,6.794,0,0,1-.191-1.123c-.025-.335-.038-.763-.038-1.288v-8.8h3.716v8.8a7.25,7.25,0,0,0,.059.987,2.932,2.932,0,0,0,.258.894,1.6,1.6,0,0,0,1.576.894,1.571,1.571,0,0,0,1.576-.873,2.929,2.929,0,0,0,.229-.881c.025-.254.038-.6.038-1.017v-8.8h3.716v8.791Z" transform="translate(-236.686 -27.249)" fill="#fff"/>
          <path id="Path_1291" data-name="Path 1291" d="M380.145,34.506a4.385,4.385,0,0,1-1.152,1.745,4.77,4.77,0,0,1-1.987,1.038,9.266,9.266,0,0,1-2.258.22h-1.614v4.559H369.57V27.52h4.762c.462,0,.847.008,1.161.03a10.276,10.276,0,0,1,1.19.136,4.446,4.446,0,0,1,2.131.9,4.794,4.794,0,0,1,1.707,3.851A5.687,5.687,0,0,1,380.145,34.506ZM376.2,31.07a3.851,3.851,0,0,0-1.69-.288h-1.373v3.466h1.508a3.242,3.242,0,0,0,1.623-.326,1.514,1.514,0,0,0,.7-1.419A1.468,1.468,0,0,0,376.2,31.07Z" transform="translate(-255.394 -27.249)" fill="#fff"/>
        </g>
      </g>
      <g id="Group_1182" data-name="Group 1182" transform="translate(17.103 0)">
        <circle id="Ellipse_138" data-name="Ellipse 138" cx="0.936" cy="0.936" r="0.936" transform="translate(4.715 9.842)" fill="#fff"/>
        <circle id="Ellipse_139" data-name="Ellipse 139" cx="0.936" cy="0.936" r="0.936" transform="translate(9.206 11.714)" fill="#fff"/>
        <circle id="Ellipse_140" data-name="Ellipse 140" cx="0.936" cy="0.936" r="0.936" transform="translate(1.771 5.275)" fill="#fff"/>
        <circle id="Ellipse_141" data-name="Ellipse 141" cx="0.661" cy="0.661" r="0.661" transform="translate(2.046 9.583)" fill="#fff"/>
        <circle id="Ellipse_142" data-name="Ellipse 142" cx="0.661" cy="0.661" r="0.661" transform="translate(6.368 13.053)" fill="#fff"/>
        <path id="Path_1292" data-name="Path 1292" d="M148.549,24.3a8.109,8.109,0,1,0,8.109,8.109A8.12,8.12,0,0,0,148.549,24.3Zm3.732,10.405a.941.941,0,0,1,1.322-.178.92.92,0,0,1,.352.8.91.91,0,0,0-.33-.521.94.94,0,0,0-1.322.178.915.915,0,0,0-.174.521A.926.926,0,0,1,152.281,34.705Zm-2.72-1.745a1.022,1.022,0,0,1,1.021,1.021.991.991,0,0,1-.458.826.993.993,0,0,0,.233-.627,1.022,1.022,0,0,0-1.021-1.021.973.973,0,0,0-.563.195A1.006,1.006,0,0,1,149.561,32.96Zm-1.013,6.923a7.469,7.469,0,0,1-2.4-14.544,7.621,7.621,0,0,0-.3,2.055.823.823,0,0,0-.1-.008.936.936,0,1,0,0,1.873.9.9,0,0,0,.3-.055q.076.337.178.661a1.5,1.5,0,1,0,1.419,2.572,7.593,7.593,0,0,0,.8.813,1.346,1.346,0,1,0,2.275,1.423,7.868,7.868,0,0,0,1.174.369.986.986,0,0,0-.017.157,1.152,1.152,0,0,0,2.3.021,7.791,7.791,0,0,0,1.377-.233A7.471,7.471,0,0,1,148.549,39.882Z" transform="translate(-140.44 -24.3)" fill="#fff"/>
      </g>
    </g>
    <g id="Group_1184" data-name="Group 1184" transform="translate(63.699 31.803)">
      <path id="Path_1293" data-name="Path 1293" d="M145.4,76.609v-1.72h-1.9v1.72h-.369V72.94h.369v1.618h1.9V72.94h.364v3.669Z" transform="translate(-143.13 -71.271)" fill="#fff"/>
      <path id="Path_1294" data-name="Path 1294" d="M151.75,75.352V71.684h2.008v.335h-1.64v1.318H153.7v.335h-1.584v1.351h1.64v.33H151.75Zm1.419-3.974-.428-.364-.436.364h-.449l.72-.619h.326l.708.619Zm-.6,4.906v-.627h.369v.627Z" transform="translate(-148.098 -70.014)" fill="#fff"/>
      <path id="Path_1295" data-name="Path 1295" d="M164.021,76.277a1.081,1.081,0,0,1-.78.309,1.121,1.121,0,0,1-.8-.3,1.078,1.078,0,0,1-.326-.792h.369a.691.691,0,0,0,.763.758.719.719,0,0,0,.521-.208.71.71,0,0,0,.216-.521.643.643,0,0,0-.258-.534,1.16,1.16,0,0,0-.263-.148,2.634,2.634,0,0,0-.3-.1q-.229-.07-.369-.127a1.173,1.173,0,0,1-.3-.174.819.819,0,0,1-.28-.665.931.931,0,0,1,.3-.707,1.04,1.04,0,0,1,.729-.275.991.991,0,0,1,.72.284.953.953,0,0,1,.3.716h-.369a.643.643,0,0,0-.191-.466.619.619,0,0,0-.462-.2.649.649,0,0,0-.47.182.6.6,0,0,0-.195.458.528.528,0,0,0,.3.487,1.228,1.228,0,0,0,.284.114l.292.089a1.386,1.386,0,0,1,.648.377.965.965,0,0,1,.25.686A1,1,0,0,1,164.021,76.277Z" transform="translate(-154.069 -71.184)" fill="#fff"/>
      <path id="Path_1296" data-name="Path 1296" d="M169.26,76.609V72.94h.369v3.669Z" transform="translate(-158.19 -71.271)" fill="#fff"/>
      <path id="Path_1297" data-name="Path 1297" d="M175.145,76.609l-2.178-3.228h-.008v3.228h-.369V72.94h.5l2.046,3.046h.008V72.94h.364v3.669Z" transform="translate(-160.109 -71.271)" fill="#fff"/>
      <path id="Path_1298" data-name="Path 1298" d="M184.227,76.609v-1.72h-1.9v1.72h-.369V72.94h.369v1.618h1.9V72.94h.364v3.669Z" transform="translate(-165.509 -71.271)" fill="#fff"/>
      <path id="Path_1299" data-name="Path 1299" d="M194.992,73.275v3.334h-.369V73.275h-.843V72.94h2.046v.335Z" transform="translate(-172.322 -71.271)" fill="#fff"/>
      <path id="Path_1300" data-name="Path 1300" d="M202.547,76.609v-1.72h-1.9v1.72h-.369V72.94h.369v1.618h1.9V72.94h.364v3.669Z" transform="translate(-176.068 -71.271)" fill="#fff"/>
      <path id="Path_1301" data-name="Path 1301" d="M211.382,75.2l-.534-1.233h-1.7l-.534,1.233h-.381l1.568-3.669h.411l1.576,3.669ZM210,71.953l-.72,1.686H210.7Zm-.373-.627-.165-.284.987-.542.157.3Z" transform="translate(-180.65 -69.865)" fill="#fff"/>
      <path id="Path_1302" data-name="Path 1302" d="M218.33,76.609V72.94h.369v3.669Z" transform="translate(-186.471 -71.271)" fill="#fff"/>
      <path id="Path_1303" data-name="Path 1303" d="M229.106,74.836a1.811,1.811,0,0,1-.623,1.25,1.986,1.986,0,0,1-2.69-.051,1.836,1.836,0,0,1,0-2.7,1.933,1.933,0,0,1,1.377-.547,1.908,1.908,0,0,1,1.5.674,1.265,1.265,0,0,1,.237.369h-.428a1.361,1.361,0,0,0-.559-.521,1.607,1.607,0,0,0-.746-.186,1.561,1.561,0,0,0-1.127.458,1.541,1.541,0,0,0,0,2.228,1.608,1.608,0,0,0,1.135.449,1.581,1.581,0,0,0,.924-.3,1.391,1.391,0,0,0,.563-.784h-2.046v-.33h2.483Z" transform="translate(-190.43 -71.184)" fill="#fff"/>
      <path id="Path_1304" data-name="Path 1304" d="M239.435,76.035a1.96,1.96,0,0,1-2.72,0,1.783,1.783,0,0,1-.585-1.335,1.843,1.843,0,0,1,.568-1.36,1.965,1.965,0,0,1,2.733,0,1.809,1.809,0,0,1,.58,1.347A1.789,1.789,0,0,1,239.435,76.035Zm-.254-2.453a1.565,1.565,0,0,0-2.224,0A1.549,1.549,0,0,0,236.5,74.7a1.472,1.472,0,0,0,.47,1.093,1.514,1.514,0,0,0,1.1.453,1.53,1.53,0,0,0,1.11-.458,1.545,1.545,0,0,0,0-2.212Z" transform="translate(-196.73 -71.184)" fill="#fff"/>
      <path id="Path_1305" data-name="Path 1305" d="M247.45,76.609V72.94h.369v3.338h1.517v.33Z" transform="translate(-203.254 -71.271)" fill="#fff"/>
      <path id="Path_1306" data-name="Path 1306" d="M253.789,73.275V74.6h1.432v.33h-1.432v1.673h-.369V72.94h1.856v.335Z" transform="translate(-206.695 -71.271)" fill="#fff"/>
      <path id="Path_1307" data-name="Path 1307" d="M266.077,76.609v-1.72h-1.9v1.72h-.369V72.94h.369v1.618h1.9V72.94h.364v3.669Z" transform="translate(-212.683 -71.271)" fill="#fff"/>
      <path id="Path_1308" data-name="Path 1308" d="M274.912,75.2l-.534-1.233h-1.7l-.534,1.233h-.381l1.568-3.669h.411l1.576,3.669Zm-1.381-3.249-.72,1.686h1.423Zm.39-.627-.983-.53.161-.3.987.542Z" transform="translate(-217.265 -69.865)" fill="#fff"/>
      <path id="Path_1309" data-name="Path 1309" d="M284.4,76.609l-2.178-3.228h-.008v3.228h-.369V72.94h.5l2.046,3.046h.008V72.94h.364v3.669Z" transform="translate(-223.08 -71.271)" fill="#fff"/>
      <path id="Path_1310" data-name="Path 1310" d="M294.706,74.836a1.811,1.811,0,0,1-.623,1.25,1.986,1.986,0,0,1-2.69-.051,1.836,1.836,0,0,1,0-2.7,1.934,1.934,0,0,1,1.377-.547,1.908,1.908,0,0,1,1.5.674,1.268,1.268,0,0,1,.237.369h-.428a1.361,1.361,0,0,0-.559-.521,1.607,1.607,0,0,0-.746-.186,1.561,1.561,0,0,0-1.127.458,1.541,1.541,0,0,0,0,2.228,1.608,1.608,0,0,0,1.135.449,1.581,1.581,0,0,0,.924-.3,1.391,1.391,0,0,0,.563-.784h-2.046v-.33h2.483Z" transform="translate(-228.238 -71.184)" fill="#fff"/>
      <path id="Path_1311" data-name="Path 1311" d="M305.631,74.548V72.93H306.7a2.715,2.715,0,0,1,.619.072,1.966,1.966,0,0,1,.572.229,1.822,1.822,0,0,1,0,3.063,1.84,1.84,0,0,1-.576.233,2.743,2.743,0,0,1-.619.072h-1.072v-1.72h-.3v-.33Zm.369.335v1.39h.61c.123,0,.225,0,.314-.008a1.978,1.978,0,0,0,.3-.042,1.5,1.5,0,0,0,.563-.246,1.339,1.339,0,0,0,.432-.538,1.591,1.591,0,0,0,.144-.674,1.4,1.4,0,0,0-.623-1.216,1.42,1.42,0,0,0-.58-.233,3.027,3.027,0,0,0-.314-.038c-.089,0-.195-.008-.318-.008H306v1.284h1.114v.33Z" transform="translate(-236.612 -71.265)" fill="#fff"/>
      <path id="Path_1312" data-name="Path 1312" d="M317.882,74.338l-.534-1.233h-1.7l-.534,1.233h-.381l1.568-3.669h.411l1.576,3.669Zm-.945-3.974L316.509,70l-.436.364h-.449l.72-.619h.326l.708.619Zm-.436.724-.72,1.686H317.2Zm.606-1.263-.983-.53.161-.3.987.542Z" transform="translate(-242.03 -69)" fill="#fff"/>
      <path id="Path_1313" data-name="Path 1313" d="M327.325,75.228a2.306,2.306,0,0,1-.03.39,1.436,1.436,0,0,1-.11.373,1.241,1.241,0,0,1-2.22,0,1.439,1.439,0,0,1-.106-.373,2.31,2.31,0,0,1-.03-.39V72.94h.369v2.288a2.16,2.16,0,0,0,.025.339,1.066,1.066,0,0,0,.1.326.865.865,0,0,0,1.517,0,.961.961,0,0,0,.1-.326,2.157,2.157,0,0,0,.025-.339V72.94h.364Z" transform="translate(-247.851 -71.271)" fill="#fff"/>
      <path id="Path_1314" data-name="Path 1314" d="M338.223,76.609h-.36L336.35,72.94h.407l1.292,3.216,1.3-3.216h.4Z" transform="translate(-254.49 -71.271)" fill="#fff"/>
      <path id="Path_1315" data-name="Path 1315" d="M346.05,76.609V72.94h.369v3.669Z" transform="translate(-260.081 -71.271)" fill="#fff"/>
      <path id="Path_1316" data-name="Path 1316" d="M349.33,75.352V71.684h2.008v.335H349.7v1.318h1.584v.335H349.7v1.351h1.64v.33H349.33Zm1.415-3.974-.428-.364-.436.364h-.449l.72-.619h.326l.707.619Zm-.6,4.906v-.627h.369v.627Z" transform="translate(-261.971 -70.014)" fill="#fff"/>
      <path id="Path_1317" data-name="Path 1317" d="M356.762,73.275v3.334h-.369V73.275h-.843V72.94H357.6v.335Z" transform="translate(-265.556 -71.271)" fill="#fff"/>
      <path id="Path_1318" data-name="Path 1318" d="M368.535,76.609l-2.178-3.228h-.008v3.228h-.369V72.94h.5l2.046,3.046h.008V72.94h.364v3.669Z" transform="translate(-271.567 -71.271)" fill="#fff"/>
      <path id="Path_1319" data-name="Path 1319" d="M377.762,76.609l-.534-1.233h-1.7l-.534,1.233h-.381l1.568-3.669h.411l1.576,3.669Zm-1.381-3.249-.72,1.686h1.423Z" transform="translate(-276.541 -71.271)" fill="#fff"/>
      <path id="Path_1320" data-name="Path 1320" d="M388.146,76.609V73.342h-.008l-1.373,3.266h-.314l-1.364-3.266h-.008v3.266h-.369V72.94h.563l1.335,3.127,1.339-3.127h.568v3.669Z" transform="translate(-282.362 -71.271)" fill="#fff"/>
    </g>
  </g>
</svg>
