<svg xmlns="http://www.w3.org/2000/svg" width="262.791" height="67.229" viewBox="0 0 262.791 67.229">
  <g id="logo-white" transform="translate(-81.979 -41.071)">
    <path id="Path_493" data-name="Path 493" d="M111.239,63.9a4.077,4.077,0,0,0,0,8.155h12.1a13.685,13.685,0,1,1-2.31-11.025l.307.42h8.952l-.678-1.457a21.624,21.624,0,1,0-26.487,29.595l1.266,7.527H92.374a10.4,10.4,0,0,1-10.4-10.4V51.466a10.4,10.4,0,0,1,10.4-10.4h35.253a10.4,10.4,0,0,1,10.4,10.4V86.72a10.4,10.4,0,0,1-10.4,10.4h-9.5L109.709,108.3l1.977-11.186h1.735l1.164-6.887a21.647,21.647,0,0,0,16.609-25.507l-.168-.819Z" transform="translate(0)" fill="#fff"/>
    <g id="Group_293" data-name="Group 293" transform="translate(145.814 54.433)">
      <g id="Group_291" data-name="Group 291" transform="translate(0 1.74)">
        <g id="Group_290" data-name="Group 290">
          <path id="Path_495" data-name="Path 495" d="M188.178,72a12.086,12.086,0,0,1-3.511,8.869,12.687,12.687,0,0,1-17.539.045,11.645,11.645,0,0,1-3.587-8.64,11.277,11.277,0,0,1,3.648-8.564,12.792,12.792,0,0,1,15.861-1.1,10.623,10.623,0,0,1,4.442,5.938h-6.624a5.483,5.483,0,0,0-5.1-2.992,5.914,5.914,0,0,0-4.579,1.985,6.8,6.8,0,0,0-1.74,4.732,7.186,7.186,0,0,0,1.694,4.885,5.866,5.866,0,0,0,4.655,2.061,6.407,6.407,0,0,0,3.45-.9,4.713,4.713,0,0,0,2.076-2.825h-6.9V70.778h13.723q.015.275.03.61Z" transform="translate(-163.541 -60.367)" fill="#fff"/>
          <path id="Path_496" data-name="Path 496" d="M234.019,84.055V60.913h5.908V78.865h6.855v5.19Z" transform="translate(-178.859 -60.486)" fill="#fff"/>
          <path id="Path_497" data-name="Path 497" d="M258.933,66.1v3.938h6.716v5.19h-6.716v8.823H253.27V60.913h12.623V66.1Z" transform="translate(-183.043 -60.486)" fill="#fff"/>
          <path id="Path_498" data-name="Path 498" d="M296.826,72a12.089,12.089,0,0,1-3.511,8.869,12.687,12.687,0,0,1-17.539.045,11.646,11.646,0,0,1-3.588-8.64,11.278,11.278,0,0,1,3.649-8.564,12.791,12.791,0,0,1,15.86-1.1,10.62,10.62,0,0,1,4.442,5.938h-6.625a5.481,5.481,0,0,0-5.1-2.992,5.914,5.914,0,0,0-4.579,1.985,6.8,6.8,0,0,0-1.741,4.732,7.189,7.189,0,0,0,1.694,4.885,5.869,5.869,0,0,0,4.656,2.061,6.409,6.409,0,0,0,3.45-.9,4.716,4.716,0,0,0,2.076-2.825h-6.9V70.778H296.8q.015.275.03.61Z" transform="translate(-187.155 -60.367)" fill="#fff"/>
          <path id="Path_499" data-name="Path 499" d="M318.636,84.055l-5.342-7.464h-.061v7.464h-5.663V60.913h7.312q1.16,0,1.862.046a13.585,13.585,0,0,1,1.863.2,7.256,7.256,0,0,1,3.4,1.42,8.337,8.337,0,0,1,1.344,11.067,6.342,6.342,0,0,1-4.244,2.534l6.274,7.877Zm-.58-17.234a4.47,4.47,0,0,0-2.671-.717h-2.152v6.441h2.091q3.876,0,3.877-3.312A2.761,2.761,0,0,0,318.056,66.82Z" transform="translate(-194.844 -60.486)" fill="#fff"/>
          <path id="Path_500" data-name="Path 500" d="M353.195,80.944a12.569,12.569,0,0,1-17.2.061,11.027,11.027,0,0,1-3.633-8.349,13.552,13.552,0,0,1,.9-4.946,10.553,10.553,0,0,1,1.511-2.595,11.63,11.63,0,0,1,9.785-4.748,11.915,11.915,0,0,1,8.64,3.45,12.051,12.051,0,0,1,0,17.127Zm-4.046-13.311a5.81,5.81,0,0,0-4.564-2.076,5.875,5.875,0,0,0-4.58,2.015,6.831,6.831,0,0,0-1.74,4.732,6.988,6.988,0,0,0,1.755,4.824,5.891,5.891,0,0,0,4.626,2.061,5.716,5.716,0,0,0,4.5-2.076,7.423,7.423,0,0,0,0-9.48Z" transform="translate(-200.232 -60.367)" fill="#fff"/>
          <path id="Path_501" data-name="Path 501" d="M385.3,74.9a15.089,15.089,0,0,1-.4,3.831,7.486,7.486,0,0,1-1.908,3.267,8.661,8.661,0,0,1-6.473,2.5,11.057,11.057,0,0,1-3.6-.565,7.411,7.411,0,0,1-3.052-1.908,7.833,7.833,0,0,1-1.954-3.3,10.665,10.665,0,0,1-.305-1.786q-.061-.794-.061-2.045V60.913h5.907V74.9a11.581,11.581,0,0,0,.092,1.572,4.694,4.694,0,0,0,.412,1.42,2.548,2.548,0,0,0,2.5,1.419,2.485,2.485,0,0,0,2.5-1.388,4.863,4.863,0,0,0,.366-1.4q.061-.61.061-1.618V60.913H385.3Z" transform="translate(-207.879 -60.486)" fill="#fff"/>
          <path id="Path_502" data-name="Path 502" d="M412.3,72.026a7.056,7.056,0,0,1-1.831,2.778,7.553,7.553,0,0,1-3.16,1.648,14.815,14.815,0,0,1-3.587.351h-2.565v7.251h-5.663V60.913h7.571q1.1,0,1.847.046a16.272,16.272,0,0,1,1.893.214,7.086,7.086,0,0,1,3.388,1.435,7.627,7.627,0,0,1,2.717,6.121A9.188,9.188,0,0,1,412.3,72.026Zm-6.274-5.465a6.074,6.074,0,0,0-2.687-.458h-2.183v5.51h2.4a5.124,5.124,0,0,0,2.58-.519,2.4,2.4,0,0,0,1.115-2.259A2.343,2.343,0,0,0,406.025,66.561Z" transform="translate(-213.954 -60.486)" fill="#fff"/>
        </g>
      </g>
      <g id="Group_292" data-name="Group 292" transform="translate(27.194)">
        <circle id="Ellipse_94" data-name="Ellipse 94" cx="1.489" cy="1.489" r="1.489" transform="translate(7.494 15.65)" fill="#fff"/>
        <circle id="Ellipse_95" data-name="Ellipse 95" cx="1.489" cy="1.489" r="1.489" transform="translate(14.634 18.627)" fill="#fff"/>
        <circle id="Ellipse_96" data-name="Ellipse 96" cx="1.489" cy="1.489" r="1.489" transform="translate(2.815 8.389)" fill="#fff"/>
        <circle id="Ellipse_97" data-name="Ellipse 97" cx="1.053" cy="1.053" r="1.053" transform="translate(3.251 15.235)" fill="#fff"/>
        <circle id="Ellipse_98" data-name="Ellipse 98" cx="1.053" cy="1.053" r="1.053" transform="translate(10.117 20.754)" fill="#fff"/>
        <path id="Path_503" data-name="Path 503" d="M211.177,58.144a12.891,12.891,0,1,0,12.89,12.891A12.9,12.9,0,0,0,211.177,58.144Zm5.933,16.544a1.5,1.5,0,0,1,2.1-.284,1.474,1.474,0,0,1,.562,1.27,1.473,1.473,0,0,0-.523-.83,1.5,1.5,0,0,0-2.1.284,1.462,1.462,0,0,0-.277.832A1.473,1.473,0,0,1,217.11,74.688Zm-4.323-2.778a1.622,1.622,0,0,1,1.622,1.622,1.6,1.6,0,0,1-.725,1.316,1.589,1.589,0,0,0,.372-.995,1.622,1.622,0,0,0-1.622-1.622,1.579,1.579,0,0,0-.9.307A1.594,1.594,0,0,1,212.787,71.91Zm-1.609,11.01a11.878,11.878,0,0,1-3.816-23.13,12.286,12.286,0,0,0-.479,3.265,1.345,1.345,0,0,0-.16-.016,1.489,1.489,0,1,0,0,2.977,1.461,1.461,0,0,0,.477-.085c.081.356.174.708.285,1.051a2.392,2.392,0,1,0,2.256,4.1A12.406,12.406,0,0,0,211,72.372a2.14,2.14,0,1,0,3.616,2.267,12.342,12.342,0,0,0,1.869.585,1.786,1.786,0,0,0-.026.252,1.833,1.833,0,0,0,3.665.039,12.428,12.428,0,0,0,2.186-.369A11.894,11.894,0,0,1,211.177,82.92Z" transform="translate(-198.287 -58.144)" fill="#fff"/>
      </g>
    </g>
    <g id="Group_294" data-name="Group 294" transform="translate(200.655 82.491)">
      <path id="Path_504" data-name="Path 504" d="M237.383,104.874a2.141,2.141,0,0,1-1.54.612,2.21,2.21,0,0,1-1.593-.593,2.1,2.1,0,0,1-.64-1.563h.726a1.362,1.362,0,0,0,1.507,1.5,1.415,1.415,0,0,0,1.028-.411,1.384,1.384,0,0,0,.43-1.028,1.265,1.265,0,0,0-.512-1.052,2.41,2.41,0,0,0-.517-.292c-.156-.063-.352-.131-.588-.2a6.128,6.128,0,0,1-.726-.253,2.44,2.44,0,0,1-.6-.344,1.609,1.609,0,0,1-.555-1.315,1.829,1.829,0,0,1,.6-1.4,2.037,2.037,0,0,1,1.439-.546,1.966,1.966,0,0,1,1.42.56,1.884,1.884,0,0,1,.589,1.41h-.727a1.286,1.286,0,0,0-.373-.923,1.218,1.218,0,0,0-.909-.392,1.3,1.3,0,0,0-.928.358,1.189,1.189,0,0,0-.382.9,1.046,1.046,0,0,0,.583.961,3.091,3.091,0,0,0,.56.229l.578.172a2.764,2.764,0,0,1,1.277.741,1.935,1.935,0,0,1,.5,1.353A2.013,2.013,0,0,1,237.383,104.874Z" transform="translate(-233.611 -94.86)" fill="#fff"/>
      <path id="Path_505" data-name="Path 505" d="M247.372,103.634a3.863,3.863,0,0,1-5.37.009,3.513,3.513,0,0,1-1.152-2.634,3.635,3.635,0,0,1,1.124-2.687,3.879,3.879,0,0,1,5.4-.01,3.663,3.663,0,0,1,0,5.322Zm-.5-4.844a3.088,3.088,0,0,0-4.394.009,3.048,3.048,0,0,0-.9,2.209,2.9,2.9,0,0,0,.927,2.156,3.093,3.093,0,0,0,4.366,0,2.939,2.939,0,0,0,.923-2.18A2.978,2.978,0,0,0,246.874,98.791Zm-1.324-2.047-.841-.717-.861.717h-.894l1.42-1.224h.65l1.4,1.224Zm.411-.626-.325-.564,1.952-1.071.315.589Z" transform="translate(-235.184 -94.099)" fill="#fff"/>
      <path id="Path_506" data-name="Path 506" d="M259.076,105.391V98.8h-1.243v-.66H259.8v7.249Z" transform="translate(-238.875 -94.895)" fill="#fff"/>
      <path id="Path_507" data-name="Path 507" d="M271.839,105.391h-.712l-2.989-7.249h.8l2.553,6.35,2.569-6.35h.784Z" transform="translate(-241.115 -94.895)" fill="#fff"/>
      <path id="Path_508" data-name="Path 508" d="M278.445,104.489V97.24h3.963v.66h-3.236v2.6H282.3v.66h-3.131v2.673h3.236v.655Zm2.8-7.852-.841-.717-.866.717h-.888l1.42-1.224h.645l1.4,1.224Zm.239-1.009-1.937-1.047.311-.589,1.951,1.071Z" transform="translate(-243.355 -93.993)" fill="#fff"/>
      <path id="Path_509" data-name="Path 509" d="M297.45,102.029a3.587,3.587,0,0,1-1.233,2.472,3.771,3.771,0,0,1-2.6.985,3.821,3.821,0,0,1-2.716-1.09,3.629,3.629,0,0,1-.01-5.331,3.807,3.807,0,0,1,2.717-1.081,3.766,3.766,0,0,1,2.959,1.329,2.555,2.555,0,0,1,.469.727H296.2a2.691,2.691,0,0,0-1.1-1.033,3.138,3.138,0,0,0-1.473-.368,3.073,3.073,0,0,0-2.224.9,3.04,3.04,0,0,0,.009,4.4,3.157,3.157,0,0,0,2.243.884,3.077,3.077,0,0,0,1.821-.6,2.691,2.691,0,0,0,1.11-1.544h-4.046v-.655Z" transform="translate(-245.809 -94.86)" fill="#fff"/>
      <path id="Path_510" data-name="Path 510" d="M307.954,104.4a3.863,3.863,0,0,1-5.37.009,3.513,3.513,0,0,1-1.152-2.634,3.635,3.635,0,0,1,1.124-2.687,3.879,3.879,0,0,1,5.4-.01,3.663,3.663,0,0,1,0,5.322Zm-.5-4.844a3.089,3.089,0,0,0-4.395.009,3.048,3.048,0,0,0-.9,2.209,2.9,2.9,0,0,0,.927,2.156,3.093,3.093,0,0,0,4.366,0,2.939,2.939,0,0,0,.923-2.18A2.98,2.98,0,0,0,307.457,99.551Z" transform="translate(-248.351 -94.86)" fill="#fff"/>
      <path id="Path_511" data-name="Path 511" d="M313.535,105.391V98.142h.727v6.594h2.993v.655Z" transform="translate(-250.982 -94.895)" fill="#fff"/>
      <path id="Path_512" data-name="Path 512" d="M320.644,98.8v2.625h2.826v.655h-2.826v3.309h-.726V98.142h3.662v.66Z" transform="translate(-252.369 -94.895)" fill="#fff"/>
      <path id="Path_513" data-name="Path 513" d="M332.54,98.8v6.589h-.727V98.8h-1.664v-.66h4.046v.66Z" transform="translate(-254.593 -94.895)" fill="#fff"/>
      <path id="Path_514" data-name="Path 514" d="M342.531,105.391l-1.051-2.439h-3.367l-1.057,2.439H336.3l3.095-7.249h.813l3.112,7.249Zm-2.725-6.422-1.421,3.328H341.2Zm-.358,8.263v-1.238h.727v1.238Z" transform="translate(-255.93 -94.895)" fill="#fff"/>
      <path id="Path_515" data-name="Path 515" d="M347.108,105.391V98.142h.727v7.249Z" transform="translate(-258.279 -94.895)" fill="#fff"/>
      <path id="Path_516" data-name="Path 516" d="M357.746,105.391h-.712l-2.988-7.249h.8l2.554,6.35,2.568-6.35h.784Z" transform="translate(-259.787 -94.895)" fill="#fff"/>
      <path id="Path_517" data-name="Path 517" d="M364.425,105.391V98.142h.727v7.249Z" transform="translate(-262.043 -94.895)" fill="#fff"/>
      <path id="Path_518" data-name="Path 518" d="M367.925,104.884V97.635h3.964v.66h-3.237v2.6h3.131v.66h-3.131v2.673h3.237v.655Zm2.8-7.852-.841-.717-.866.717h-.889l1.421-1.224h.645l1.4,1.224Zm-1.18,9.692v-1.238h.725v1.238Z" transform="translate(-262.803 -94.387)" fill="#fff"/>
      <path id="Path_519" data-name="Path 519" d="M376.967,98.8v6.589h-.726V98.8h-1.664v-.66h4.046v.66Z" transform="translate(-264.249 -94.895)" fill="#fff"/>
      <path id="Path_520" data-name="Path 520" d="M390.776,105.391l-4.3-6.374h-.019v6.374h-.727V98.142h.981l4.046,6.016h.019V98.142h.722v7.249Z" transform="translate(-266.673 -94.895)" fill="#fff"/>
      <path id="Path_521" data-name="Path 521" d="M401.181,105.391l-1.052-2.439h-3.367l-1.056,2.439h-.756l3.094-7.249h.813l3.113,7.249Zm-2.726-6.422-1.42,3.328h2.812Z" transform="translate(-268.677 -94.895)" fill="#fff"/>
      <path id="Path_522" data-name="Path 522" d="M412.541,105.391V98.936h-.019l-2.711,6.455h-.617L406.5,98.936h-.02v6.455h-.727V98.142h1.114l2.636,6.174,2.643-6.174h1.119v7.249Z" transform="translate(-271.025 -94.895)" fill="#fff"/>
    </g>
  </g>
</svg>
