<svg xmlns="http://www.w3.org/2000/svg" xmlns:xlink="http://www.w3.org/1999/xlink" width="263.002" height="67.284" viewBox="0 0 263.002 67.284">
  <defs>
    <clipPath id="clip-path">
      <circle id="Ellipse_84" data-name="Ellipse 84" cx="12.398" cy="12.398" r="12.398" fill="none"/>
    </clipPath>
  </defs>
  <g id="logo" transform="translate(-81.979 -41.071)">
    <path id="Path_458" data-name="Path 458" d="M111.262,63.921a4.08,4.08,0,0,0,0,8.161h12.11a13.7,13.7,0,1,1-2.311-11.034l.307.42h8.959l-.678-1.458a21.641,21.641,0,1,0-26.508,29.618l1.267,7.533H92.383a10.4,10.4,0,0,1-10.4-10.4V51.475a10.4,10.4,0,0,1,10.4-10.4h35.281a10.4,10.4,0,0,1,10.4,10.4V86.757a10.4,10.4,0,0,1-10.4,10.4h-9.508l-8.424,11.195L111.71,97.16h1.737l1.165-6.892a21.664,21.664,0,0,0,16.622-25.527l-.168-.82Z" transform="translate(0 0)" fill="#191919"/>
    <path id="Path_459" data-name="Path 459" d="M113.314,67h18.966a20.708,20.708,0,0,1,.422,4.169c0,.665-.038,1.321-.1,1.97-.021.217-.057.428-.084.643-.055.428-.114.855-.2,1.274-.048.251-.107.5-.164.746-.085.373-.179.742-.284,1.107q-.114.392-.241.777c-.114.338-.237.671-.367,1-.1.262-.205.525-.318.782-.137.309-.287.609-.439.909-.131.262-.255.526-.4.781s-.3.5-.456.751a20.605,20.605,0,0,1-1.223,1.782c-.095.124-.182.254-.28.375-.266.33-.548.642-.833.955-.117.128-.229.258-.349.383-.3.312-.609.609-.927.9-.113.1-.226.209-.342.311q-.512.451-1.051.869c-.088.067-.176.132-.264.2-.4.3-.808.587-1.231.857l-.013.008a20.472,20.472,0,0,1-17.683,2.143h0a20.56,20.56,0,0,1-4.148-1.95c-.083-.051-.168-.1-.251-.153q-.556-.351-1.086-.738c-.113-.082-.224-.167-.335-.251-.342-.258-.679-.521-1-.8-.078-.067-.152-.139-.23-.208a20.6,20.6,0,0,1-1.764-1.764c-.1-.11-.2-.213-.3-.324-.221-.261-.427-.532-.634-.8-.161-.209-.321-.419-.475-.634-.181-.255-.354-.514-.524-.778s-.325-.524-.481-.792c-.141-.243-.284-.484-.416-.733-.2-.382-.386-.775-.564-1.172-.089-.2-.182-.4-.265-.6q-.306-.743-.554-1.513c-.066-.2-.12-.413-.179-.62-.115-.4-.22-.8-.311-1.208-.049-.222-.094-.444-.136-.669-.08-.425-.143-.855-.2-1.289-.025-.2-.055-.4-.074-.6-.059-.634-.1-1.275-.1-1.925a20.615,20.615,0,0,1,39.322-8.674H123.94a14.863,14.863,0,0,0-3.644-3.517,14.695,14.695,0,0,0-15.233-.746,14.711,14.711,0,1,0,21.582,14.877H113.314a3.054,3.054,0,1,1,0-6.109h0" transform="translate(-2.052 -2.052)" fill="#f97243"/>
    <g id="Group_282" data-name="Group 282" transform="translate(145.865 54.444)">
      <g id="Group_276" data-name="Group 276" transform="translate(0 1.741)">
        <g id="Group_275" data-name="Group 275">
          <path id="Path_460" data-name="Path 460" d="M188.2,72.008a12.1,12.1,0,0,1-3.514,8.876,12.7,12.7,0,0,1-17.553.045,11.654,11.654,0,0,1-3.59-8.647,11.286,11.286,0,0,1,3.651-8.571,12.8,12.8,0,0,1,15.873-1.1,10.631,10.631,0,0,1,4.445,5.943h-6.63a5.487,5.487,0,0,0-5.1-2.994,5.919,5.919,0,0,0-4.583,1.986,6.8,6.8,0,0,0-1.741,4.736,7.191,7.191,0,0,0,1.7,4.888,5.871,5.871,0,0,0,4.659,2.062,6.412,6.412,0,0,0,3.453-.9,4.717,4.717,0,0,0,2.078-2.827h-6.905v-4.72h13.734q.015.275.031.611Z" transform="translate(-163.541 -60.367)" fill="#f97243"/>
          <path id="Path_461" data-name="Path 461" d="M234.019,84.073V60.913h5.912V78.879h6.86v5.194Z" transform="translate(-178.815 -60.485)" fill="#f97243"/>
          <path id="Path_462" data-name="Path 462" d="M258.938,66.108v3.941h6.721v5.194h-6.721v8.83H253.27V60.913H265.9v5.195Z" transform="translate(-182.987 -60.485)" fill="#f97243"/>
          <path id="Path_463" data-name="Path 463" d="M296.846,72.008a12.1,12.1,0,0,1-3.514,8.876,12.7,12.7,0,0,1-17.553.045,11.655,11.655,0,0,1-3.591-8.647,11.287,11.287,0,0,1,3.652-8.571,12.8,12.8,0,0,1,15.872-1.1,10.629,10.629,0,0,1,4.446,5.943h-6.63a5.485,5.485,0,0,0-5.1-2.994,5.919,5.919,0,0,0-4.583,1.986,6.8,6.8,0,0,0-1.742,4.736,7.2,7.2,0,0,0,1.7,4.888,5.874,5.874,0,0,0,4.66,2.062,6.414,6.414,0,0,0,3.453-.9,4.72,4.72,0,0,0,2.078-2.827h-6.905v-4.72h13.734q.015.275.031.611Z" transform="translate(-187.087 -60.367)" fill="#f97243"/>
          <path id="Path_464" data-name="Path 464" d="M318.645,84.073,313.3,76.6h-.061v7.47h-5.668V60.913h7.317q1.161,0,1.863.046a13.6,13.6,0,0,1,1.864.2,7.262,7.262,0,0,1,3.406,1.421,8.344,8.344,0,0,1,1.345,11.076,6.347,6.347,0,0,1-4.247,2.536l6.279,7.883Zm-.58-17.248a4.473,4.473,0,0,0-2.673-.717h-2.154v6.446h2.093q3.88,0,3.88-3.315A2.764,2.764,0,0,0,318.064,66.825Z" transform="translate(-194.755 -60.485)" fill="#f97243"/>
          <path id="Path_465" data-name="Path 465" d="M353.211,80.96a12.579,12.579,0,0,1-17.217.061,11.035,11.035,0,0,1-3.636-8.356,13.564,13.564,0,0,1,.9-4.95,10.561,10.561,0,0,1,1.513-2.6,11.639,11.639,0,0,1,9.793-4.751,11.924,11.924,0,0,1,8.647,3.453,12.06,12.06,0,0,1,0,17.141Zm-4.049-13.321a5.814,5.814,0,0,0-4.567-2.078,5.88,5.88,0,0,0-4.584,2.017,6.836,6.836,0,0,0-1.741,4.736,6.994,6.994,0,0,0,1.757,4.827,5.9,5.9,0,0,0,4.629,2.062,5.721,5.721,0,0,0,4.506-2.077,7.429,7.429,0,0,0,0-9.487Z" transform="translate(-200.127 -60.367)" fill="#f97243"/>
          <path id="Path_466" data-name="Path 466" d="M385.31,74.907a15.1,15.1,0,0,1-.4,3.834A7.492,7.492,0,0,1,383,82.011a8.668,8.668,0,0,1-6.478,2.506,11.065,11.065,0,0,1-3.605-.566,7.416,7.416,0,0,1-3.055-1.91,7.838,7.838,0,0,1-1.956-3.3,10.671,10.671,0,0,1-.306-1.787q-.061-.794-.061-2.047V60.913h5.912V74.907a11.594,11.594,0,0,0,.092,1.574,4.7,4.7,0,0,0,.413,1.421,2.55,2.55,0,0,0,2.505,1.42,2.487,2.487,0,0,0,2.506-1.39,4.862,4.862,0,0,0,.367-1.406q.061-.611.061-1.619V60.913h5.912Z" transform="translate(-207.752 -60.485)" fill="#f97243"/>
          <path id="Path_467" data-name="Path 467" d="M412.312,72.035a7.062,7.062,0,0,1-1.833,2.781,7.56,7.56,0,0,1-3.163,1.65,14.827,14.827,0,0,1-3.59.352H401.16v7.256h-5.668V60.913h7.577q1.1,0,1.849.046a16.287,16.287,0,0,1,1.895.214,7.091,7.091,0,0,1,3.391,1.436,7.633,7.633,0,0,1,2.72,6.126A9.2,9.2,0,0,1,412.312,72.035Zm-6.279-5.469a6.079,6.079,0,0,0-2.689-.458H401.16v5.514h2.4a5.128,5.128,0,0,0,2.582-.519,2.4,2.4,0,0,0,1.115-2.261A2.345,2.345,0,0,0,406.033,66.566Z" transform="translate(-213.809 -60.485)" fill="#f97243"/>
        </g>
      </g>
      <g id="Group_281" data-name="Group 281" transform="translate(27.216)">
        <g id="Group_277" data-name="Group 277">
          <circle id="Ellipse_82" data-name="Ellipse 82" cx="12.398" cy="12.398" r="12.398" transform="translate(0.503 0.504)" fill="#fff"/>
          <path id="Path_468" data-name="Path 468" d="M211.188,83.947a12.9,12.9,0,1,1,12.9-12.9A12.915,12.915,0,0,1,211.188,83.947Zm0-24.8a11.895,11.895,0,1,0,11.895,11.895A11.908,11.908,0,0,0,211.188,59.151Z" transform="translate(-198.287 -58.144)" fill="#f97243"/>
        </g>
        <g id="Group_279" data-name="Group 279" transform="translate(0.503 0.504)">
          <g id="Group_278" data-name="Group 278" clip-path="url(#clip-path)">
            <circle id="Ellipse_83" data-name="Ellipse 83" cx="12.398" cy="12.398" r="12.398" transform="translate(8.094 -7.882)" fill="#f97243"/>
          </g>
        </g>
        <g id="Group_280" data-name="Group 280" transform="translate(2.818 4.899)">
          <circle id="Ellipse_85" data-name="Ellipse 85" cx="1.49" cy="1.49" r="1.49" transform="translate(4.135)" fill="#f97243"/>
          <circle id="Ellipse_86" data-name="Ellipse 86" cx="2.402" cy="2.402" r="2.402" transform="translate(4.682 3.831)" fill="#f97243"/>
          <circle id="Ellipse_87" data-name="Ellipse 87" cx="1.836" cy="1.836" r="1.836" transform="translate(15.373 10.611)" fill="#f97243"/>
          <circle id="Ellipse_88" data-name="Ellipse 88" cx="2.149" cy="2.149" r="2.149" transform="translate(9.486 8.462)" fill="#f97243"/>
          <circle id="Ellipse_89" data-name="Ellipse 89" cx="1.49" cy="1.49" r="1.49" transform="translate(4.682 10.763)" fill="#f97243"/>
          <circle id="Ellipse_90" data-name="Ellipse 90" cx="1.49" cy="1.49" r="1.49" transform="translate(11.828 13.743)" fill="#f97243"/>
          <circle id="Ellipse_91" data-name="Ellipse 91" cx="1.49" cy="1.49" r="1.49" transform="translate(0 3.497)" fill="#f97243"/>
          <circle id="Ellipse_92" data-name="Ellipse 92" cx="1.053" cy="1.053" r="1.053" transform="translate(0.436 10.348)" fill="#f97243"/>
          <circle id="Ellipse_93" data-name="Ellipse 93" cx="1.053" cy="1.053" r="1.053" transform="translate(7.308 15.871)" fill="#f97243"/>
          <path id="Path_469" data-name="Path 469" d="M216.467,75.733a1.6,1.6,0,0,0-1.251.628,1.58,1.58,0,0,1,.9-.307,1.623,1.623,0,0,1,1.623,1.624,1.591,1.591,0,0,1-.372,1,1.6,1.6,0,0,0,.725-1.317A1.624,1.624,0,0,0,216.467,75.733Z" transform="translate(-204.773 -66.855)" fill="#fff"/>
          <path id="Path_470" data-name="Path 470" d="M222.257,79.118a1.474,1.474,0,0,0-.239,1.273,1.463,1.463,0,0,1,.277-.833,1.5,1.5,0,0,1,2.1-.284,1.476,1.476,0,0,1,.523.831,1.475,1.475,0,0,0-.562-1.271A1.5,1.5,0,0,0,222.257,79.118Z" transform="translate(-206.237 -67.46)" fill="#fff"/>
        </g>
      </g>
    </g>
    <g id="Group_283" data-name="Group 283" transform="translate(200.749 82.524)">
      <path id="Path_471" data-name="Path 471" d="M237.386,104.879a2.143,2.143,0,0,1-1.541.613,2.212,2.212,0,0,1-1.594-.594,2.1,2.1,0,0,1-.641-1.564h.727a1.363,1.363,0,0,0,1.508,1.5,1.416,1.416,0,0,0,1.028-.411,1.385,1.385,0,0,0,.431-1.029,1.266,1.266,0,0,0-.512-1.053,2.409,2.409,0,0,0-.517-.292c-.156-.063-.352-.131-.588-.2a6.135,6.135,0,0,1-.727-.253,2.442,2.442,0,0,1-.6-.345,1.61,1.61,0,0,1-.555-1.316,1.831,1.831,0,0,1,.6-1.4,2.039,2.039,0,0,1,1.44-.546,1.968,1.968,0,0,1,1.421.56,1.885,1.885,0,0,1,.589,1.411h-.728a1.287,1.287,0,0,0-.373-.923,1.219,1.219,0,0,0-.909-.392,1.3,1.3,0,0,0-.929.359,1.19,1.19,0,0,0-.382.9,1.047,1.047,0,0,0,.584.962,3.1,3.1,0,0,0,.56.229l.579.172a2.766,2.766,0,0,1,1.278.742,1.937,1.937,0,0,1,.5,1.354A2.015,2.015,0,0,1,237.386,104.879Z" transform="translate(-233.611 -94.858)" fill="#535453"/>
      <path id="Path_472" data-name="Path 472" d="M247.377,103.642a3.866,3.866,0,0,1-5.374.009,3.516,3.516,0,0,1-1.153-2.637,3.638,3.638,0,0,1,1.125-2.689,3.882,3.882,0,0,1,5.407-.01,3.666,3.666,0,0,1,0,5.326Zm-.5-4.848a3.09,3.09,0,0,0-4.4.009,3.051,3.051,0,0,0-.9,2.211,2.906,2.906,0,0,0,.928,2.158,3.1,3.1,0,0,0,4.369,0,2.942,2.942,0,0,0,.923-2.182A2.98,2.98,0,0,0,246.879,98.794Zm-1.325-2.048-.842-.717-.862.717h-.895l1.421-1.225h.651l1.4,1.225Zm.411-.627-.325-.565,1.954-1.072.316.589Z" transform="translate(-235.18 -94.099)" fill="#535453"/>
      <path id="Path_473" data-name="Path 473" d="M259.077,105.4V98.8h-1.244v-.66H259.8V105.4Z" transform="translate(-238.86 -94.892)" fill="#535453"/>
      <path id="Path_474" data-name="Path 474" d="M271.842,105.4h-.713l-2.991-7.255h.8L271.5,104.5l2.571-6.356h.785Z" transform="translate(-241.094 -94.892)" fill="#535453"/>
      <path id="Path_475" data-name="Path 475" d="M278.445,104.5V97.243h3.967v.66h-3.239v2.6h3.134v.66h-3.134v2.675h3.239v.656Zm2.8-7.858-.842-.717-.867.717h-.889l1.421-1.225h.645l1.4,1.225Zm.24-1.01-1.939-1.048.311-.589,1.953,1.072Z" transform="translate(-243.327 -93.993)" fill="#535453"/>
      <path id="Path_476" data-name="Path 476" d="M297.456,102.032a3.59,3.59,0,0,1-1.234,2.474,3.774,3.774,0,0,1-2.6.986,3.824,3.824,0,0,1-2.718-1.091,3.632,3.632,0,0,1-.01-5.336,3.81,3.81,0,0,1,2.719-1.082,3.769,3.769,0,0,1,2.962,1.33,2.556,2.556,0,0,1,.469.728H296.2a2.694,2.694,0,0,0-1.105-1.034,3.141,3.141,0,0,0-1.474-.368,3.075,3.075,0,0,0-2.225.9,3.043,3.043,0,0,0,.009,4.4,3.159,3.159,0,0,0,2.245.885,3.08,3.08,0,0,0,1.823-.6,2.694,2.694,0,0,0,1.111-1.545h-4.049v-.656Z" transform="translate(-245.774 -94.858)" fill="#535453"/>
      <path id="Path_477" data-name="Path 477" d="M307.959,104.4a3.866,3.866,0,0,1-5.374.009,3.516,3.516,0,0,1-1.153-2.637,3.638,3.638,0,0,1,1.125-2.689,3.882,3.882,0,0,1,5.407-.01,3.666,3.666,0,0,1,0,5.326Zm-.5-4.848a3.091,3.091,0,0,0-4.4.009,3.051,3.051,0,0,0-.9,2.211,2.907,2.907,0,0,0,.928,2.158,3.1,3.1,0,0,0,4.369,0,5.348,5.348,0,0,0,.923-2.182A5.424,5.424,0,0,0,307.462,99.553Z" transform="translate(-248.309 -94.858)" fill="#535453"/>
      <path id="Path_478" data-name="Path 478" d="M313.535,105.4V98.142h.728v6.6h3v.656Z" transform="translate(-250.932 -94.892)" fill="#535453"/>
      <path id="Path_479" data-name="Path 479" d="M320.645,98.8v2.627h2.828v.656h-2.828V105.4h-.727V98.142h3.665v.66Z" transform="translate(-252.315 -94.892)" fill="#535453"/>
      <path id="Path_480" data-name="Path 480" d="M332.542,98.8V105.4h-.728V98.8h-1.665v-.66H334.2v.66Z" transform="translate(-254.533 -94.892)" fill="#535453"/>
      <path id="Path_481" data-name="Path 481" d="M342.536,105.4l-1.052-2.441h-3.37l-1.057,2.441H336.3l3.1-7.255h.814l3.114,7.255Zm-2.727-6.427-1.422,3.33H341.2Zm-.359,8.269V106h.728v1.239Z" transform="translate(-255.866 -94.892)" fill="#535453"/>
      <path id="Path_482" data-name="Path 482" d="M347.108,105.4V98.142h.728V105.4Z" transform="translate(-258.208 -94.892)" fill="#535453"/>
      <path id="Path_483" data-name="Path 483" d="M357.749,105.4h-.713l-2.991-7.255h.8l2.556,6.356,2.57-6.356h.785Z" transform="translate(-259.712 -94.892)" fill="#535453"/>
      <path id="Path_484" data-name="Path 484" d="M364.425,105.4V98.142h.728V105.4Z" transform="translate(-261.961 -94.892)" fill="#535453"/>
      <path id="Path_485" data-name="Path 485" d="M367.925,104.891V97.636h3.967v.66h-3.24v2.6h3.134v.66h-3.134v2.675h3.24v.656Zm2.8-7.858-.842-.717-.866.717h-.89l1.422-1.225h.645l1.4,1.225Zm-1.181,9.7v-1.239h.726v1.239Z" transform="translate(-262.72 -94.386)" fill="#535453"/>
      <path id="Path_486" data-name="Path 486" d="M376.969,98.8V105.4h-.727V98.8h-1.665v-.66h4.049v.66Z" transform="translate(-264.161 -94.892)" fill="#535453"/>
      <path id="Path_487" data-name="Path 487" d="M390.78,105.4l-4.3-6.379h-.019V105.4h-.728V98.142h.981l4.049,6.02h.019v-6.02h.722V105.4Z" transform="translate(-266.578 -94.892)" fill="#535453"/>
      <path id="Path_488" data-name="Path 488" d="M401.186,105.4l-1.053-2.441h-3.37l-1.057,2.441h-.757l3.1-7.255h.814l3.115,7.255Zm-2.728-6.427-1.421,3.33h2.814Z" transform="translate(-268.576 -94.892)" fill="#535453"/>
      <path id="Path_489" data-name="Path 489" d="M412.546,105.4v-6.46h-.019l-2.713,6.46H409.2l-2.694-6.46h-.02v6.46h-.728V98.142h1.115l2.638,6.179,2.645-6.179h1.12V105.4Z" transform="translate(-270.918 -94.892)" fill="#535453"/>
    </g>
  </g>
</svg>
