<svg  xmlns="http://www.w3.org/2000/svg" width="118.134" height="118.134" viewBox="0 0 118.134 118.134">
  <g  data-name="Group 56">
    <g  data-name="Group 55">
      <path  data-name="Path 109" d="M59.067,0a59.067,59.067,0,1,0,59.067,59.067A59.067,59.067,0,0,0,59.067,0Zm0,109.7A50.629,50.629,0,1,1,109.7,59.067,50.629,50.629,0,0,1,59.067,109.7Z" fill="#fff"/>
    </g>
  </g>
  <g  data-name="Group 58" transform="translate(42.191 37.969)">
    <g  data-name="Group 57">
      <path  data-name="Path 110" d="M212.418,172.8a4.219,4.219,0,0,0-1.894-1.894l-33.753-16.876a4.219,4.219,0,0,0-6.105,3.776v33.753a4.219,4.219,0,0,0,6.105,3.776l33.753-16.876A4.219,4.219,0,0,0,212.418,172.8ZM179.1,184.736v-20.1l20.1,10.05Z" transform="translate(-170.666 -153.587)" fill="#fff"/>
    </g>
  </g>
</svg>
