<svg xmlns="http://www.w3.org/2000/svg" width="43.299" height="43.866" viewBox="0 0 43.299 43.866">
  <g  transform="translate(-220.545 1289.649)">
    <g  transform="translate(220.346 -1289.649)">
      <path data-name="Path 155" d="M44.761,0A20.6,20.6,0,0,0,24.2,20.562a16.292,16.292,0,0,0,.072,1.876l1.443-.144a13.887,13.887,0,0,1-.072-1.731A19.119,19.119,0,1,1,45.483,39.681l1.587-1.587-1.01-1.01-3.391,3.391,3.391,3.391,1.01-1.01-1.731-1.731A20.566,20.566,0,0,0,44.761,0Zm0,0" transform="translate(-21.836)"/>
      <path  data-name="Path 156" d="M138.172,96H112.2v12.987h25.973Zm-1.443,11.544H113.642v-10.1h23.087Zm0,0" transform="translate(-101.9 -87.342)" fill="#f04c28"/>
      <path  data-name="Path 157" d="M227.085,141.772a2.886,2.886,0,1,0-2.886-2.886A2.894,2.894,0,0,0,227.085,141.772Zm0-4.329a1.443,1.443,0,1,1-1.443,1.443A1.447,1.447,0,0,1,227.085,137.443Zm0,0" transform="translate(-203.799 -123.735)" fill="#f04c28"/>
      <path  data-name="Path 158" d="M145.642,129.443h1.443V128H144.2v2.886h1.443Zm0,0" transform="translate(-131.014 -116.456)" fill="#f04c28"/>
      <path  data-name="Path 159" d="M147.085,177.443h-1.443V176H144.2v2.886h2.886Zm0,0" transform="translate(-131.014 -160.128)" fill="#f04c28"/>
      <path  data-name="Path 160" d="M339.085,176h-1.443v1.443H336.2v1.443h2.886Zm0,0" transform="translate(-305.698 -160.128)" fill="#f04c28"/>
      <path  data-name="Path 161" d="M337.642,130.886h1.443V128H336.2v1.443h1.443Zm0,0" transform="translate(-305.698 -116.456)" fill="#f04c28"/>
      <path  data-name="Path 162" d="M184.2,160h2.164v1.443H184.2Zm0,0" transform="translate(-167.406 -145.57)" fill="#f04c28"/>
      <path  data-name="Path 163" d="M304.2,160h2.164v1.443H304.2Zm0,0" transform="translate(-276.584 -145.57)" fill="#f04c28"/>
      <path  data-name="Path 164" d="M48.2,344h1.443v2.164H48.2Zm0,0" transform="translate(-43.671 -312.977)"/>
      <path  data-name="Path 165" d="M36.273,268.242a2.71,2.71,0,0,0-2.669-2.669,2.462,2.462,0,0,0-.721.072l-8.73,2.525c-.072,0-.217.072-.289,0l-2.02-.361a2.943,2.943,0,0,0,1.154-3.9,2.832,2.832,0,0,0-2.525-1.515H11.382a2.035,2.035,0,0,0-1.082.289l-1.443.938v-1.082H.2v12.265H8.857V273L16,275.962a2,2,0,0,0,1.443.072l16.883-5.267a2.559,2.559,0,0,0,1.948-2.525ZM7.414,273.365H1.642v-9.379H4.528v4.329H5.971v-4.329H7.414Zm9.668,1.3a.615.615,0,0,1-.5,0l-7.72-3.247v-6.133l2.164-1.226a.541.541,0,0,1,.361-.072H20.4a1.443,1.443,0,0,1,0,2.886H15.35v.721l-.144.721,8.3,1.371a2.074,2.074,0,0,0,.938-.072l8.73-2.525a1.232,1.232,0,0,1,1.515.866,1.189,1.189,0,0,1-.794,1.515Zm0,0" transform="translate(0 -238.734)"/>
    </g>
  </g>
</svg>
