<svg xmlns="http://www.w3.org/2000/svg" width="47.428" height="47.538" viewBox="0 0 47.428 47.538">
  <g  transform="translate(-603.171 1293)">
    <g  transform="translate(603.171 -1293)">
      <g  data-name="Group 16" transform="translate(3.013)">
        <path  data-name="Path 41" d="M340.028,14.568a.767.767,0,0,1-.756-.9l.5-2.937h-2.048a2.3,2.3,0,0,1-2.3-2.3V2.3a2.3,2.3,0,0,1,2.3-2.3h10.734a2.3,2.3,0,0,1,2.3,2.3V8.434a2.3,2.3,0,0,1-2.3,2.3h-2.08l-5.948,3.717A.768.768,0,0,1,340.028,14.568Z" transform="translate(-306.347)" fill="#f04c28"/>
        <rect  data-name="Rectangle 9" width="2.804" height="6.506" transform="translate(6.583 30.275) rotate(135)" fill="#f04c28"/>
        <path  data-name="Path 42" d="M164.874,402.5l2.207-2.022-4.6-4.6-2.22,2.008Z" transform="translate(-147.968 -357.938)" fill="#f04c28"/>
      </g>
      <path  data-name="Path 43" d="M37.328,108.411a5.367,5.367,0,0,0-4.132-3.583l-5.124-.932v-.4a7.717,7.717,0,0,0,2.286-2.03h1.548a2.3,2.3,0,0,0,2.3-2.3v-9.2a9.968,9.968,0,0,0-19.935,0v5.367a3.072,3.072,0,0,0,2.445,3A7.682,7.682,0,0,0,20.4,103.5v.4l-5.125.932a5.366,5.366,0,0,0-4.131,3.583l-.307.921L8.231,106.72a.768.768,0,0,1,0-1.085l3.029-3.028L5.575,96.923l-3.423,3.423a5.367,5.367,0,0,0,0,7.59L12.514,118.3a5.365,5.365,0,0,0,7.566.023l3.735-3.422-1.165-1.162H39.1Zm-13.09-1.892-2.3-2.3v-.036a7.661,7.661,0,0,0,4.6,0v.036Zm7.667-6.583h-.645a7.616,7.616,0,0,0,.5-1.6,3.037,3.037,0,0,0,.912-.363v1.193A.768.768,0,0,1,31.906,99.935Zm0-5.921a1.52,1.52,0,0,1,0,2.641Zm-16.1,1.32a1.528,1.528,0,0,1,.767-1.32v2.641A1.528,1.528,0,0,1,15.8,95.335Zm.767-3.834v.876a3.042,3.042,0,0,0-.767.317V89.968a8.434,8.434,0,1,1,16.868,0v2.727a3.014,3.014,0,0,0-.767-.317V91.5h-.767a8.436,8.436,0,0,1-6-2.487l-.9-.9-.9.9a8.436,8.436,0,0,1-6,2.487ZM18.1,96.868V93.005a9.941,9.941,0,0,0,6.134-2.725,9.937,9.937,0,0,0,6.134,2.725v3.863a6.088,6.088,0,0,1-.83,3.067h-5.3v1.533h4.044a6.124,6.124,0,0,1-10.178-4.6ZM9.09,102.607l-.833.833L4.741,99.924l.833-.833Zm7.218,15.73a3.813,3.813,0,0,1-2.711-1.123L3.234,106.852a3.834,3.834,0,0,1,0-5.422l.422-.422,3.516,3.516-.028.028a2.3,2.3,0,0,0,0,3.253l5.5,5.5a2.288,2.288,0,0,0,1.627.674,2.258,2.258,0,0,0,1.6-.647l.058-.051,3.532,3.532-.44.4A3.814,3.814,0,0,1,16.308,118.337Zm4.282-2.563-3.525-3.525,1.013-.915,3.519,3.519Zm.527-3.571-2.986-2.986-3.318,3a.783.783,0,0,1-1.084,0l-1.675-1.675L12.6,108.9a3.835,3.835,0,0,1,2.951-2.56l5.36-.974,3.325,3.325,3.325-3.325,5.359.974a3.834,3.834,0,0,1,2.951,2.56l1.1,3.307Z" transform="translate(-0.579 -72.333)"/>
      <rect  data-name="Rectangle 10" width="9.201" height="1.533" transform="translate(35.16 3.067)" fill="#fff"/>
      <rect  data-name="Rectangle 11" width="6.134" height="1.533" transform="translate(35.16 6.134)" fill="#fff"/>
      <rect  data-name="Rectangle 12" width="1.533" height="1.533" transform="translate(42.828 6.134)" fill="#fff"/>
      <path  data-name="Path 44" d="M7.758,40.759l-.789-1.315L4.891,40.69A19.94,19.94,0,0,1,30.138,26.423l.454-1.464A21.47,21.47,0,0,0,3.34,40.6L1.887,38.174l-1.315.789,2.7,4.491Z" transform="translate(-0.572 -21.7)"/>
      <path  data-name="Path 45" d="M416.944,151.719l-4.491-2.7-2.7,4.491,1.315.789,1.342-2.237a19.952,19.952,0,0,1-3.379,18.994l1.191.966a21.471,21.471,0,0,0,3.674-20.346l2.254,1.352Z" transform="translate(-369.888 -134.741)"/>
    </g>
  </g>
</svg>
