<svg xmlns="http://www.w3.org/2000/svg" width="50.308" height="31.823" viewBox="0 0 50.308 31.823">
  <g  transform="translate(-415 1286)">
    <g transform="translate(415 -1286)">
      <g  data-name="Group 3" transform="translate(0 0)">
        <g  data-name="Group 2" transform="translate(0 0)">
          <path  data-name="Path 28" d="M46.786,107.553l-1.3-5.211a.788.788,0,0,0,.623-.77v-.84A3.312,3.312,0,0,0,42.8,97.423H36.865V95.69a1.63,1.63,0,0,0-1.628-1.628H4.989A1.63,1.63,0,0,0,3.361,95.69v14.284a.788.788,0,1,0,1.575,0V95.69a.052.052,0,0,1,.052-.052H35.237a.052.052,0,0,1,.052.052v14.284a.788.788,0,1,0,1.575,0v-.893h9.3a2.578,2.578,0,0,1,2.448,1.785H46.159a.788.788,0,0,0-.788.788v1.68A2.471,2.471,0,0,0,47.84,115.8h.893v3.466h-2.06a4.987,4.987,0,0,0-9.429,0h-.379v-5.934a.788.788,0,0,0-1.575,0v5.934H18.946a4.987,4.987,0,0,0-9.429,0H4.989a.052.052,0,0,1-.052-.052v-1.733H8.35a.788.788,0,1,0,0-1.575H.788a.788.788,0,1,0,0,1.575H3.361v1.733a1.63,1.63,0,0,0,1.628,1.628H9.244c0,.017,0,.035,0,.052a4.989,4.989,0,1,0,9.978,0c0-.018,0-.035,0-.052H36.971c0,.017,0,.035,0,.052a4.989,4.989,0,1,0,9.978,0c0-.018,0-.035,0-.052H49.52a.788.788,0,0,0,.788-.788v-8.4A4.155,4.155,0,0,0,46.786,107.553ZM36.865,99H42.8a1.735,1.735,0,0,1,1.733,1.733v.052H36.865Zm0,8.507v-5.146h7l1.287,5.146Zm-22.633,16.8a3.413,3.413,0,1,1,3.413-3.413A3.417,3.417,0,0,1,14.231,124.31Zm27.727,0a3.413,3.413,0,1,1,3.413-3.413A3.417,3.417,0,0,1,41.959,124.31Zm6.774-10.083H47.84a.894.894,0,0,1-.893-.893v-.893h1.785v1.786Z" transform="translate(0 -94.062)" fill="#333"/>
        </g>
      </g>
      <g  data-name="Group 5" transform="translate(11.501 24.429)">
        <g data-name="Group 4">
          <path  data-name="Path 29" d="M130.086,350.6a1.819,1.819,0,1,0,1.819,1.819A1.821,1.821,0,0,0,130.086,350.6Z" transform="translate(-128.267 -350.597)" fill="#333"/>
        </g>
      </g>
      <g  data-name="Group 7" transform="translate(41.158 25.429)">
        <g  data-name="Group 6">
          <path  data-name="Path 30" d="M412.274,350.6a1.819,1.819,0,1,0,1.819,1.819A1.821,1.821,0,0,0,412.274,350.6Z" transform="translate(-410.455 -350.597)" fill="#333"/>
        </g>
      </g>
      <g  data-name="Group 9" transform="translate(19.31 21.712)">
        <g  data-name="Group 8">
          <path  data-name="Path 31" d="M219.253,316.393H206.107a.88.88,0,1,0,0,1.761h13.146a.88.88,0,0,0,0-1.761Z" transform="translate(-205.227 -316.393)" fill="#333"/>
        </g>
      </g>
      <g  data-name="Group 11" transform="translate(1.878 18.372)">
        <g  data-name="Group 10" transform="translate(0 0)">
          <path  data-name="Path 32" d="M29.25,282.188H17.982a.88.88,0,0,0,0,1.761H29.25a.88.88,0,0,0,0-1.761Z" transform="translate(-17.102 -282.188)" fill="#333"/>
        </g>
      </g>
      <g  data-name="Group 13" transform="translate(13.678 7.204)">
        <g  data-name="Group 12" transform="translate(0 0)">
          <path  data-name="Path 33" d="M160.018,171.28a.88.88,0,0,0-1.245,0l-7.828,7.828-4.072-4.072a.88.88,0,0,0-1.245,1.245l4.695,4.695a.88.88,0,0,0,1.245,0l8.451-8.451A.88.88,0,0,0,160.018,171.28Z" transform="translate(-145.37 -171.023)" fill="#f04c28"/>
        </g>
      </g>
    </g>
  </g>
</svg>
