<svg xmlns="http://www.w3.org/2000/svg" width="37" height="36.999" viewBox="0 0 37 36.999">
  <g  transform="translate(-30 1287)">
    <g  transform="translate(30 -1287)">
      <path data-name="Path 133" d="M21.021,31.042A10.021,10.021,0,1,1,31.042,21.021,10.033,10.033,0,0,1,21.021,31.042Zm0-17.729a7.708,7.708,0,1,0,7.708,7.708A7.717,7.717,0,0,0,21.021,13.313Z" transform="translate(5.959 5.957)" fill="#f04c28"/>
      <path  data-name="Path 134" d="M17.989,22.98a1.154,1.154,0,0,1-.817-.339l-3.083-3.083a1.157,1.157,0,0,1,1.636-1.636l2.211,2.209,4.582-5.236a1.156,1.156,0,1,1,1.741,1.522l-5.4,6.167a1.164,1.164,0,0,1-.834.4Z" transform="translate(7.448 7.853)" fill="#f04c28"/>
      <path data-name="Path 135" d="M13.1,32.375a1.059,1.059,0,0,1-.22-.022C12.754,32.329,0,29.694,0,15.309V5.781A1.155,1.155,0,0,1,.738,4.7L12.687.078a1.161,1.161,0,0,1,.834,0L25.469,4.7a1.154,1.154,0,0,1,.74,1.078v6.938a1.156,1.156,0,0,1-2.313,0V6.573L13.1,2.4,2.313,6.573v8.735c0,11.708,9.266,14.368,10.81,14.731h0a1.156,1.156,0,0,1,.452,2.268l-.287.052A1.075,1.075,0,0,1,13.1,32.375Z" transform="translate(0 -0.001)"/>
    </g>
  </g>
</svg>
