<svg xmlns="http://www.w3.org/2000/svg" width="38.647" height="46.37" viewBox="0 0 38.647 46.37">
  <g transform="translate(164.768 1292.223)">
    <g  data-name="1302718" transform="translate(-164.768 -1292.223)">
      <path  data-name="Path 60" d="M194.965,461.309a.68.68,0,1,0,.546.667A.681.681,0,0,0,194.965,461.309Zm0,0" transform="translate(-176.568 -419.518)" fill="#f04c28"/>
      <path  data-name="Path 61" d="M214.858,439.941a.679.679,0,1,0-.679.679A.679.679,0,0,0,214.858,439.941Zm0,0" transform="translate(-194.164 -399.479)" fill="#f04c28"/>
      <path  data-name="Path 62" d="M222.07,467.046a.679.679,0,1,0-.679-.679A.681.681,0,0,0,222.07,467.046Zm0,0" transform="translate(-201.34 -423.511)" fill="#f04c28"/>
      <path  data-name="Path 63" d="M241.4,445.011a.679.679,0,1,0-.68-.678A.68.68,0,0,0,241.4,445.011Zm0,0" transform="translate(-218.921 -403.473)" fill="#f04c28"/>
      <path  data-name="Path 64" d="M234.191,417.9a.679.679,0,1,0-.68.68A.679.679,0,0,0,234.191,417.9Zm0,0" transform="translate(-211.745 -379.432)" fill="#f04c28"/>
      <path  data-name="Path 65" d="M34.666,34.508l-.993.24a.679.679,0,0,0,.319,1.321l.993-.24A1.868,1.868,0,0,1,37.176,37a1.816,1.816,0,0,1-1.24,2.387l-3.569.944a2.717,2.717,0,0,1-3.039-1.261l-1.422-2.452a7.932,7.932,0,0,0,2.836.179.679.679,0,1,0-.158-1.349,6.56,6.56,0,0,1-2.285-.133L26.967,35,20.11,23.171l1.618-2.79a2.038,2.038,0,0,0,.951-.046h0a2.045,2.045,0,0,0,1.188-.933L33.341,3.062a2.038,2.038,0,1,0-3.527-2.045L20.34,17.355a2.031,2.031,0,0,0,.212,2.343l-1.228,2.117L18.1,19.7a2.042,2.042,0,0,0,.212-2.344L8.835,1.016A2.038,2.038,0,0,0,5.308,3.062L14.782,19.4a2.034,2.034,0,0,0,2.139.98l1.618,2.79L11.682,35l-1.331.315c-1.882.446-2.925.027-6.368-.8A3.227,3.227,0,0,0,.2,36.528,3.179,3.179,0,0,0,2.366,40.7c3.9,1.032,3.923,1.079,4.6,1.079A4.082,4.082,0,0,0,10.5,39.749l8.828-15.224,8.828,15.224a4.082,4.082,0,0,0,3.526,2.028c.681,0,.706-.047,4.6-1.079a3.179,3.179,0,0,0,2.168-4.17,3.227,3.227,0,0,0-3.785-2.02ZM30.99,1.7a.68.68,0,1,1,1.176.682L24.4,15.764,23.22,15.1ZM21.515,18.037l1.023-1.764,1.185.667-1.032,1.779a.68.68,0,1,1-1.176-.682Zm-7.271-2.273L6.483,2.38A.68.68,0,1,1,7.659,1.7l7.77,13.4Zm2.642,3.2a.679.679,0,0,1-.929-.247l-1.032-1.779,1.184-.667,1.023,1.764a.68.68,0,0,1-.247.929Zm-7.566,20.1a2.717,2.717,0,0,1-3.039,1.261l-3.568-.944A1.816,1.816,0,0,1,1.473,37a1.868,1.868,0,0,1,2.191-1.17c3.486.842,4.735,1.343,7.079.787Zm0,0" transform="translate(-0.001 -0.001)"/>
      <path  data-name="Path 66" d="M153.628,373.367a.679.679,0,0,0,.471-.837,6.531,6.531,0,1,0,0,3.537.679.679,0,1,0-1.308-.367,5.175,5.175,0,1,1,0-2.8.68.68,0,0,0,.838.471Zm0,0" transform="translate(-128.483 -334.46)" fill="#f04c28"/>
    </g>
  </g>
</svg>
