<svg xmlns="http://www.w3.org/2000/svg" width="38.263" height="46.233" viewBox="0 0 38.263 46.233">
  <g id="icon-1" transform="translate(357.746 1290.939)">
    <g id="Group_18" data-name="Group 18" transform="translate(-357.746 -1290.939)">
      <g id="Group_17" data-name="Group 17">
        <path id="Path_46" data-name="Path 46" d="M78.09,40.165,73.24,33.929a7.021,7.021,0,0,0,3.837-2.841c1.142-1.974.626-4.384.126-6.712a18.332,18.332,0,0,1-.54-3.651,18.325,18.325,0,0,1,.54-3.654c.5-2.329,1.016-4.737-.126-6.709-1.183-2.044-3.565-2.8-5.868-3.53a17.071,17.071,0,0,1-3.314-1.3A16.194,16.194,0,0,1,65.24,3.382C63.531,1.8,61.593,0,59.127,0s-4.4,1.8-6.114,3.381a16.2,16.2,0,0,1-2.654,2.153,17.067,17.067,0,0,1-3.313,1.295c-2.3.73-4.686,1.487-5.868,3.53-1.142,1.974-.626,4.384-.126,6.712a18.326,18.326,0,0,1,.539,3.654,18.327,18.327,0,0,1-.54,3.654c-.5,2.329-1.016,4.737.126,6.709a7.021,7.021,0,0,0,3.841,2.84l-4.854,6.236a.8.8,0,0,0,.729,1.28l5.7-.712L48,45.655a.8.8,0,0,0,.615.564.813.813,0,0,0,.151.014.8.8,0,0,0,.63-.308l5.09-6.548a7.371,7.371,0,0,0,4.642,2.073,7.371,7.371,0,0,0,4.642-2.073l5.09,6.545a.8.8,0,0,0,.63.31.813.813,0,0,0,.151-.014.8.8,0,0,0,.615-.564l1.407-4.922,5.7.712a.8.8,0,0,0,.729-1.28ZM49.1,43.707l-1.163-4.07a.8.8,0,0,0-.865-.572l-4.464.558,4-5.143.441.141a17.066,17.066,0,0,1,3.31,1.295,16.194,16.194,0,0,1,2.655,2.152l.274.253Zm10.028-3.851c-1.841,0-3.39-1.435-5.031-2.956a17.571,17.571,0,0,0-2.941-2.365A18.483,18.483,0,0,0,47.526,33.1c-2.107-.669-4.1-1.3-4.971-2.81-.834-1.442-.4-3.452.053-5.58a19.521,19.521,0,0,0,.576-3.986,19.513,19.513,0,0,0-.575-3.986c-.457-2.128-.887-4.137-.053-5.58.877-1.51,2.864-2.141,4.971-2.81a18.488,18.488,0,0,0,3.629-1.435A17.571,17.571,0,0,0,54.1,4.55c1.641-1.521,3.19-2.956,5.031-2.956s3.39,1.435,5.031,2.956A17.571,17.571,0,0,0,67.1,6.915,18.483,18.483,0,0,0,70.727,8.35c2.107.669,4.1,1.3,4.971,2.81.834,1.442.4,3.452-.053,5.58a19.521,19.521,0,0,0-.576,3.986,19.512,19.512,0,0,0,.575,3.986c.457,2.128.887,4.137.053,5.58-.877,1.51-2.864,2.141-4.971,2.81A18.488,18.488,0,0,0,67.1,34.535a17.57,17.57,0,0,0-2.94,2.365C62.517,38.421,60.968,39.856,59.127,39.856Zm12.06-.791a.8.8,0,0,0-.865.572l-1.167,4.07-4.188-5.385.274-.253A16.2,16.2,0,0,1,67.9,35.916a17.066,17.066,0,0,1,3.313-1.295l.441-.141,4,5.143Z" transform="translate(-39.995)"/>
      </g>
    </g>
    <g id="Group_20" data-name="Group 20" transform="translate(-352.963 -1284.562)">
      <g id="Group_19" data-name="Group 19" transform="translate(0)">
        <path id="Path_47" data-name="Path 47" d="M102.348,64A14.348,14.348,0,1,0,116.7,78.348,14.348,14.348,0,0,0,102.348,64Zm0,27.1A12.754,12.754,0,1,1,115.1,78.348,12.754,12.754,0,0,1,102.348,91.1Z" transform="translate(-88 -64)"/>
      </g>
    </g>
    <g id="Group_22" data-name="Group 22" transform="translate(-348.118 -1279.941)">
      <g id="Group_21" data-name="Group 21">
        <path id="Path_48" data-name="Path 48" d="M155.317,116.773a1.594,1.594,0,0,0-1.288-.656h-4.88l-1.515-4.645a1.594,1.594,0,0,0-3.029,0l-1.511,4.645h-4.884a1.594,1.594,0,0,0-.939,2.883l3.951,2.87-1.509,4.645a1.594,1.594,0,0,0,2.454,1.782l3.953-2.869,3.951,2.87a1.594,1.594,0,0,0,2.454-1.782l-1.509-4.646,3.951-2.87A1.594,1.594,0,0,0,155.317,116.773Zm-5.707,4.148a.8.8,0,0,0-.289.892l1.688,5.2-4.42-3.211a.8.8,0,0,0-.937,0l-4.42,3.211,1.688-5.2a.8.8,0,0,0-.289-.891l-4.419-3.211h5.463a.8.8,0,0,0,.758-.551l1.688-5.2,1.688,5.195a.8.8,0,0,0,.758.551h5.463Z" transform="translate(-136.616 -110.376)" fill="#f04c28"/>
      </g>
    </g>
  </g>
</svg>
