<svg xmlns="http://www.w3.org/2000/svg" width="263" height="67.289" viewBox="0 0 263 67.289">
  <g id="LogoGolfGroup" transform="translate(-5.31 -4.46)">
    <path id="Path_1282" data-name="Path 1282" d="M34.589,27.314a4.079,4.079,0,0,0,0,8.157H46.7a13.693,13.693,0,1,1-2.312-11.036l.31.418h8.96L52.974,23.4A21.643,21.643,0,1,0,26.465,53.02l1.267,7.53H15.712a10.4,10.4,0,0,1-10.4-10.4V14.862a10.4,10.4,0,0,1,10.4-10.4H51a10.4,10.4,0,0,1,10.4,10.4V50.148A10.4,10.4,0,0,1,51,60.551H41.493l-8.427,11.2,1.982-11.2h1.739l1.166-6.89A21.656,21.656,0,0,0,54.571,28.13l-.169-.822H34.589Z" transform="translate(0 0)" fill="#222"/>
    <path id="Path_1283" data-name="Path 1283" d="M38.176,31.923H57.141a20.746,20.746,0,0,1,.425,4.166c0,.667-.04,1.321-.1,1.969-.02.216-.054.431-.081.64-.054.431-.115.856-.2,1.274-.047.249-.108.5-.162.748-.088.371-.182.742-.283,1.106-.074.263-.155.519-.243.775-.115.337-.236.674-.364,1-.1.263-.2.526-.317.782-.135.31-.29.607-.438.91-.128.263-.256.526-.4.782s-.3.5-.458.748a20.246,20.246,0,0,1-1.22,1.78c-.094.121-.182.256-.283.378-.263.33-.546.64-.829.957-.115.128-.229.256-.351.384-.3.31-.607.607-.924.9-.115.1-.229.209-.344.31-.344.3-.688.593-1.052.87-.088.067-.175.135-.263.2-.4.3-.809.587-1.227.856-.007,0-.007.007-.013.007a20.493,20.493,0,0,1-17.683,2.144h0a20.629,20.629,0,0,1-4.146-1.948c-.081-.054-.169-.1-.249-.155-.371-.236-.728-.479-1.085-.735-.115-.081-.222-.169-.337-.249-.344-.256-.681-.519-1-.8-.081-.067-.155-.142-.229-.209a20.8,20.8,0,0,1-1.766-1.766c-.094-.108-.2-.216-.3-.324-.222-.263-.425-.533-.634-.8-.162-.209-.324-.418-.472-.634-.182-.256-.357-.512-.526-.775s-.324-.526-.479-.789c-.142-.243-.283-.485-.418-.735-.2-.384-.384-.775-.566-1.173-.088-.2-.182-.4-.263-.6-.2-.492-.391-1-.553-1.517-.067-.2-.121-.411-.182-.62-.115-.4-.222-.8-.31-1.207-.047-.222-.094-.445-.135-.667-.081-.425-.142-.856-.2-1.288-.027-.2-.054-.4-.074-.6-.061-.634-.094-1.274-.094-1.928a20.616,20.616,0,0,1,39.324-8.677H48.808a14.952,14.952,0,0,0-3.647-3.519,14.7,14.7,0,0,0-15.229-.748,14.832,14.832,0,0,0-5.926,5.926,14.713,14.713,0,0,0,0,14.023,14.832,14.832,0,0,0,5.926,5.926,14.707,14.707,0,0,0,21.58-11H38.176a3.047,3.047,0,1,1,0-6.094h0" transform="translate(-3.587 -3.584)" fill="#f04c28"/>
    <g id="Group_1183" data-name="Group 1183" transform="translate(69.194 17.835)">
      <g id="Group_1181" data-name="Group 1181" transform="translate(0 1.739)">
        <g id="Group_1180" data-name="Group 1180">
          <path id="Path_1284" data-name="Path 1284" d="M124.731,38.526a12.121,12.121,0,0,1-3.512,8.879,12.7,12.7,0,0,1-17.555.047,11.668,11.668,0,0,1-3.593-8.65,11.283,11.283,0,0,1,3.654-8.569,12.8,12.8,0,0,1,15.87-1.1,10.591,10.591,0,0,1,4.443,5.946H117.4a5.482,5.482,0,0,0-5.1-2.993,5.906,5.906,0,0,0-4.584,1.989,6.81,6.81,0,0,0-1.739,4.739,7.181,7.181,0,0,0,1.7,4.888,5.873,5.873,0,0,0,4.658,2.063,6.408,6.408,0,0,0,3.452-.9,4.706,4.706,0,0,0,2.076-2.825h-6.9V37.319h13.733c.013.182.02.384.034.613v.593Z" transform="translate(-100.07 -26.883)" fill="#f04c28"/>
          <path id="Path_1285" data-name="Path 1285" d="M181.96,50.678V27.52h5.912V45.487h6.863v5.191Z" transform="translate(-126.752 -27.089)" fill="#f04c28"/>
          <path id="Path_1286" data-name="Path 1286" d="M210,32.711v3.944h6.721v5.191H210v8.832h-5.67V27.52h12.634v5.191Z" transform="translate(-134.041 -27.089)" fill="#f04c28"/>
          <path id="Path_1287" data-name="Path 1287" d="M250.971,38.526a12.121,12.121,0,0,1-3.512,8.879,12.7,12.7,0,0,1-17.555.047,11.668,11.668,0,0,1-3.593-8.65,11.283,11.283,0,0,1,3.654-8.569,12.8,12.8,0,0,1,15.87-1.1,10.591,10.591,0,0,1,4.443,5.946h-6.634a5.482,5.482,0,0,0-5.1-2.993,5.906,5.906,0,0,0-4.584,1.989,6.81,6.81,0,0,0-1.739,4.739,7.181,7.181,0,0,0,1.7,4.888,5.873,5.873,0,0,0,4.659,2.063,6.408,6.408,0,0,0,3.452-.9,4.706,4.706,0,0,0,2.076-2.825h-6.9V37.319h13.733c.013.182.02.384.034.613v.593Z" transform="translate(-141.203 -26.883)" fill="#f04c28"/>
          <path id="Path_1288" data-name="Path 1288" d="M278.5,50.678l-5.346-7.47h-.061v7.47h-5.67V27.52h7.315c.775,0,1.4.013,1.861.047a14.106,14.106,0,0,1,1.861.2,7.255,7.255,0,0,1,3.4,1.422,7.654,7.654,0,0,1,2.858,6.324,7.655,7.655,0,0,1-1.51,4.753,6.362,6.362,0,0,1-4.247,2.535l6.277,7.881Zm-.58-17.245a4.469,4.469,0,0,0-2.676-.721h-2.157v6.445h2.09q3.883,0,3.883-3.317A2.739,2.739,0,0,0,277.917,33.432Z" transform="translate(-154.598 -27.089)" fill="#f04c28"/>
          <path id="Path_1289" data-name="Path 1289" d="M317.082,47.476a12.578,12.578,0,0,1-17.218.061,11.028,11.028,0,0,1-3.634-8.36,13.55,13.55,0,0,1,.9-4.948,10.75,10.75,0,0,1,1.51-2.6,11.647,11.647,0,0,1,9.8-4.753,11.944,11.944,0,0,1,8.65,3.452,11.435,11.435,0,0,1,3.573,8.555A11.555,11.555,0,0,1,317.082,47.476ZM313.03,34.154a6.144,6.144,0,0,0-9.155-.061,6.845,6.845,0,0,0-1.739,4.739,6.982,6.982,0,0,0,1.76,4.827,5.9,5.9,0,0,0,4.632,2.063,5.747,5.747,0,0,0,4.51-2.076,6.964,6.964,0,0,0,1.712-4.719A7.067,7.067,0,0,0,313.03,34.154Z" transform="translate(-163.985 -26.88)" fill="#f04c28"/>
          <path id="Path_1290" data-name="Path 1290" d="M354.874,41.509a15.2,15.2,0,0,1-.4,3.836,7.512,7.512,0,0,1-1.908,3.27,8.669,8.669,0,0,1-6.479,2.508,11.056,11.056,0,0,1-3.607-.566,7.426,7.426,0,0,1-3.054-1.908,7.862,7.862,0,0,1-1.955-3.3,10.811,10.811,0,0,1-.3-1.787c-.04-.533-.061-1.214-.061-2.049v-14h5.912v14a11.54,11.54,0,0,0,.094,1.571,4.666,4.666,0,0,0,.411,1.422,2.543,2.543,0,0,0,2.508,1.422,2.5,2.5,0,0,0,2.508-1.389,4.661,4.661,0,0,0,.364-1.4c.04-.4.061-.951.061-1.618v-14h5.912V41.509Z" transform="translate(-177.305 -27.089)" fill="#f04c28"/>
          <path id="Path_1291" data-name="Path 1291" d="M386.4,38.637a6.978,6.978,0,0,1-1.834,2.778,7.59,7.59,0,0,1-3.162,1.652,14.745,14.745,0,0,1-3.593.351H375.24v7.254h-5.67V27.52h7.578c.735,0,1.348.013,1.847.047a16.356,16.356,0,0,1,1.894.216,7.075,7.075,0,0,1,3.391,1.436A7.629,7.629,0,0,1,387,35.347,9.051,9.051,0,0,1,386.4,38.637Zm-6.283-5.467a6.128,6.128,0,0,0-2.69-.458H375.24v5.515h2.4a5.159,5.159,0,0,0,2.582-.519,2.409,2.409,0,0,0,1.112-2.258A2.337,2.337,0,0,0,380.114,33.17Z" transform="translate(-187.882 -27.089)" fill="#f04c28"/>
        </g>
      </g>
      <g id="Group_1182" data-name="Group 1182" transform="translate(27.216 0)">
        <circle id="Ellipse_138" data-name="Ellipse 138" cx="1.49" cy="1.49" r="1.49" transform="translate(7.503 15.661)" fill="#f04c28"/>
        <circle id="Ellipse_139" data-name="Ellipse 139" cx="1.49" cy="1.49" r="1.49" transform="translate(14.65 18.641)" fill="#f04c28"/>
        <circle id="Ellipse_140" data-name="Ellipse 140" cx="1.49" cy="1.49" r="1.49" transform="translate(2.818 8.393)" fill="#f04c28"/>
        <circle id="Ellipse_141" data-name="Ellipse 141" cx="1.052" cy="1.052" r="1.052" transform="translate(3.256 15.25)" fill="#f04c28"/>
        <circle id="Ellipse_142" data-name="Ellipse 142" cx="1.052" cy="1.052" r="1.052" transform="translate(10.133 20.771)" fill="#f04c28"/>
        <path id="Path_1292" data-name="Path 1292" d="M153.344,24.3a12.9,12.9,0,1,0,12.9,12.9A12.922,12.922,0,0,0,153.344,24.3Zm5.939,16.558a1.5,1.5,0,0,1,2.1-.283,1.464,1.464,0,0,1,.56,1.274,1.449,1.449,0,0,0-.526-.829,1.5,1.5,0,0,0-2.1.283,1.455,1.455,0,0,0-.276.829A1.474,1.474,0,0,1,159.283,40.858Zm-4.328-2.778A1.626,1.626,0,0,1,156.58,39.7a1.577,1.577,0,0,1-.728,1.315,1.58,1.58,0,0,0,.371-1A1.626,1.626,0,0,0,154.6,38.4a1.549,1.549,0,0,0-.9.31A1.6,1.6,0,0,1,154.955,38.08ZM153.344,49.1a11.886,11.886,0,0,1-3.823-23.144,12.129,12.129,0,0,0-.479,3.27,1.309,1.309,0,0,0-.162-.013,1.49,1.49,0,1,0,0,2.98,1.433,1.433,0,0,0,.479-.088q.121.536.283,1.052a2.392,2.392,0,1,0,2.258,4.092,12.084,12.084,0,0,0,1.267,1.294,2.142,2.142,0,1,0,3.62,2.265,12.519,12.519,0,0,0,1.867.587,1.567,1.567,0,0,0-.027.249,1.834,1.834,0,0,0,3.667.034,12.4,12.4,0,0,0,2.191-.371A11.889,11.889,0,0,1,153.344,49.1Z" transform="translate(-140.44 -24.3)" fill="#f04c28"/>
      </g>
    </g>
    <g id="Group_1184" data-name="Group 1184" transform="translate(98.224 47.971)">
      <path id="Path_1293" data-name="Path 1293" d="M146.737,78.778V76.041h-3.02v2.737h-.587V72.94h.587v2.575h3.02V72.94h.58v5.838Z" transform="translate(-143.13 -70.284)" fill="#666766"/>
      <path id="Path_1294" data-name="Path 1294" d="M151.75,78.068V72.23h3.2v.533h-2.609v2.1h2.521v.533h-2.521v2.151h2.609v.526h-3.2Zm2.258-6.324-.681-.58-.694.58h-.715l1.146-.984h.519l1.126.984Zm-.951,7.807v-1h.587v1Z" transform="translate(-145.939 -69.573)" fill="#666766"/>
      <path id="Path_1295" data-name="Path 1295" d="M165.15,78.338a1.72,1.72,0,0,1-1.24.492,1.784,1.784,0,0,1-1.281-.479,1.716,1.716,0,0,1-.519-1.261h.587A1.1,1.1,0,0,0,163.91,78.3a1.144,1.144,0,0,0,.829-.33,1.13,1.13,0,0,0,.344-.829,1.023,1.023,0,0,0-.411-.849,1.845,1.845,0,0,0-.418-.236,4.188,4.188,0,0,0-.472-.162q-.364-.111-.587-.2a1.866,1.866,0,0,1-.479-.276,1.3,1.3,0,0,1-.445-1.058,1.482,1.482,0,0,1,.479-1.126,1.654,1.654,0,0,1,1.16-.438,1.576,1.576,0,0,1,1.146.452,1.516,1.516,0,0,1,.472,1.139h-.587a1.023,1.023,0,0,0-.3-.742.984.984,0,0,0-.735-.317,1.032,1.032,0,0,0-.748.29.954.954,0,0,0-.31.728.84.84,0,0,0,.472.775,1.953,1.953,0,0,0,.452.182l.465.142a2.206,2.206,0,0,1,1.031.6,1.537,1.537,0,0,1,.4,1.092A1.586,1.586,0,0,1,165.15,78.338Z" transform="translate(-149.314 -70.235)" fill="#666766"/>
      <path id="Path_1296" data-name="Path 1296" d="M169.26,78.778V72.94h.587v5.838Z" transform="translate(-151.644 -70.284)" fill="#666766"/>
      <path id="Path_1297" data-name="Path 1297" d="M176.655,78.778l-3.465-5.137h-.013v5.137h-.587V72.94h.789l3.256,4.847h.014V72.94h.58v5.838Z" transform="translate(-152.729 -70.284)" fill="#666766"/>
      <path id="Path_1298" data-name="Path 1298" d="M185.567,78.778V76.041h-3.02v2.737h-.587V72.94h.587v2.575h3.02V72.94h.58v5.838Z" transform="translate(-155.782 -70.284)" fill="#666766"/>
      <path id="Path_1299" data-name="Path 1299" d="M195.708,73.473v5.306h-.587V73.473H193.78V72.94h3.256v.533Z" transform="translate(-159.633 -70.284)" fill="#666766"/>
      <path id="Path_1300" data-name="Path 1300" d="M203.887,78.778V76.041h-3.02v2.737h-.587V72.94h.587v2.575h3.02V72.94h.58v5.838Z" transform="translate(-161.751 -70.284)" fill="#666766"/>
      <path id="Path_1301" data-name="Path 1301" d="M213.246,77.983l-.849-1.962h-2.71l-.849,1.962h-.607l2.494-5.838h.654l2.508,5.838h-.64Zm-2.2-5.171L209.9,75.5h2.265Zm-.593-1-.263-.452,1.571-.863.249.472Z" transform="translate(-164.342 -69.489)" fill="#666766"/>
      <path id="Path_1302" data-name="Path 1302" d="M218.33,78.778V72.94h.587v5.838Z" transform="translate(-167.633 -70.284)" fill="#666766"/>
      <path id="Path_1303" data-name="Path 1303" d="M231.416,76.046a2.882,2.882,0,0,1-.991,1.989,3.16,3.16,0,0,1-4.281-.081,2.921,2.921,0,0,1-.007-4.294,3.077,3.077,0,0,1,2.191-.87,3.036,3.036,0,0,1,2.387,1.072,2.014,2.014,0,0,1,.378.587h-.681a2.165,2.165,0,0,0-.89-.829,2.557,2.557,0,0,0-1.187-.3,2.484,2.484,0,0,0-1.793.728,2.452,2.452,0,0,0,.007,3.546,2.56,2.56,0,0,0,1.807.715,2.516,2.516,0,0,0,1.47-.479,2.213,2.213,0,0,0,.9-1.247h-3.256V76.06h3.951Z" transform="translate(-169.871 -70.235)" fill="#666766"/>
      <path id="Path_1304" data-name="Path 1304" d="M241.389,77.954a3.119,3.119,0,0,1-4.328.007,2.838,2.838,0,0,1-.93-2.124,2.932,2.932,0,0,1,.9-2.164,3.126,3.126,0,0,1,4.348-.007,2.878,2.878,0,0,1,.924,2.144A2.847,2.847,0,0,1,241.389,77.954Zm-.4-3.9a2.49,2.49,0,0,0-3.539.007,2.465,2.465,0,0,0-.728,1.78,2.342,2.342,0,0,0,.748,1.739,2.408,2.408,0,0,0,1.753.721,2.434,2.434,0,0,0,1.766-.728,2.458,2.458,0,0,0,0-3.519Z" transform="translate(-173.432 -70.235)" fill="#666766"/>
      <path id="Path_1305" data-name="Path 1305" d="M247.45,78.778V72.94h.587v5.312h2.413v.526Z" transform="translate(-177.121 -70.284)" fill="#666766"/>
      <path id="Path_1306" data-name="Path 1306" d="M254.007,73.473v2.117h2.279v.526h-2.279v2.663h-.587V72.94h2.953v.533Z" transform="translate(-179.066 -70.284)" fill="#666766"/>
      <path id="Path_1307" data-name="Path 1307" d="M267.417,78.778V76.041H264.4v2.737h-.587V72.94h.587v2.575h3.02V72.94H268v5.838Z" transform="translate(-182.451 -70.284)" fill="#666766"/>
      <path id="Path_1308" data-name="Path 1308" d="M276.776,77.983l-.849-1.962h-2.71l-.849,1.962h-.607l2.494-5.838h.654l2.508,5.838h-.641Zm-2.2-5.171L273.432,75.5H275.7Zm.62-1-1.564-.843.256-.472,1.571.863Z" transform="translate(-185.042 -69.489)" fill="#666766"/>
      <path id="Path_1309" data-name="Path 1309" d="M285.915,78.778l-3.465-5.137h-.013v5.137h-.587V72.94h.789l3.256,4.847h.013V72.94h.58v5.838Z" transform="translate(-188.33 -70.284)" fill="#666766"/>
      <path id="Path_1310" data-name="Path 1310" d="M297.016,76.046a2.882,2.882,0,0,1-.991,1.989,3.16,3.16,0,0,1-4.281-.081,2.921,2.921,0,0,1-.007-4.294,3.077,3.077,0,0,1,2.191-.87,3.036,3.036,0,0,1,2.387,1.072,2.016,2.016,0,0,1,.378.587h-.681a2.165,2.165,0,0,0-.89-.829,2.557,2.557,0,0,0-1.187-.3,2.484,2.484,0,0,0-1.793.728,2.452,2.452,0,0,0,.007,3.546,2.56,2.56,0,0,0,1.807.715,2.516,2.516,0,0,0,1.47-.479,2.213,2.213,0,0,0,.9-1.247h-3.256V76.06h3.951Z" transform="translate(-191.246 -70.235)" fill="#666766"/>
      <path id="Path_1311" data-name="Path 1311" d="M305.809,75.505V72.93h1.706a4.32,4.32,0,0,1,.984.115,3.128,3.128,0,0,1,.91.364,2.9,2.9,0,0,1,0,4.874,2.929,2.929,0,0,1-.917.371,4.366,4.366,0,0,1-.984.115H305.8V76.031h-.472v-.526Zm.586.533v2.211h.971c.2,0,.357-.007.5-.013a3.145,3.145,0,0,0,.479-.067,2.392,2.392,0,0,0,.9-.391,2.131,2.131,0,0,0,.688-.856,2.532,2.532,0,0,0,.229-1.072,2.222,2.222,0,0,0-.991-1.935,2.26,2.26,0,0,0-.924-.371,4.817,4.817,0,0,0-.5-.061c-.142-.007-.31-.013-.506-.013H306.4v2.043h1.773v.526H306.4Z" transform="translate(-195.98 -70.281)" fill="#666766"/>
      <path id="Path_1312" data-name="Path 1312" d="M319.746,77.495l-.849-1.962h-2.71l-.849,1.962h-.607l2.494-5.838h.654l2.508,5.838h-.64Zm-1.5-6.324-.681-.58-.694.58h-.715l1.146-.984h.519l1.126.984Zm-.694,1.153L316.4,75.007h2.265Zm.964-2.009-1.564-.843L317.2,69l1.571.863Z" transform="translate(-199.043 -69)" fill="#666766"/>
      <path id="Path_1313" data-name="Path 1313" d="M328.8,76.58a3.67,3.67,0,0,1-.047.62,2.285,2.285,0,0,1-.175.593,1.974,1.974,0,0,1-3.533,0,2.287,2.287,0,0,1-.169-.593,3.676,3.676,0,0,1-.047-.62V72.94h.586V76.58a3.438,3.438,0,0,0,.04.539,1.7,1.7,0,0,0,.155.519,1.376,1.376,0,0,0,2.414,0,1.531,1.531,0,0,0,.155-.519,3.438,3.438,0,0,0,.04-.539V72.94h.58Z" transform="translate(-202.334 -70.284)" fill="#666766"/>
      <path id="Path_1314" data-name="Path 1314" d="M339.33,78.778h-.573L336.35,72.94H337l2.056,5.117,2.07-5.117h.634Z" transform="translate(-206.087 -70.284)" fill="#666766"/>
      <path id="Path_1315" data-name="Path 1315" d="M346.05,78.778V72.94h.587v5.838Z" transform="translate(-209.248 -70.284)" fill="#666766"/>
      <path id="Path_1316" data-name="Path 1316" d="M349.33,78.068V72.23h3.2v.533h-2.609v2.1h2.521v.533h-2.521v2.151h2.609v.526h-3.2Zm2.252-6.324-.681-.58-.694.58h-.715l1.146-.984h.519l1.126.984Zm-.951,7.807v-1h.586v1Z" transform="translate(-210.317 -69.573)" fill="#666766"/>
      <path id="Path_1317" data-name="Path 1317" d="M357.478,73.473v5.306h-.587V73.473H355.55V72.94h3.256v.533Z" transform="translate(-212.343 -70.284)" fill="#666766"/>
      <path id="Path_1318" data-name="Path 1318" d="M370.045,78.778l-3.465-5.137h-.013v5.137h-.587V72.94h.789l3.256,4.847h.013V72.94h.58v5.838Z" transform="translate(-215.742 -70.284)" fill="#666766"/>
      <path id="Path_1319" data-name="Path 1319" d="M379.626,78.778l-.849-1.962h-2.71l-.849,1.962h-.607L377.1,72.94h.654l2.508,5.838Zm-2.2-5.171-1.146,2.683h2.265Z" transform="translate(-218.554 -70.284)" fill="#666766"/>
      <path id="Path_1320" data-name="Path 1320" d="M390.178,78.778v-5.2h-.013l-2.184,5.2h-.5l-2.171-5.2H385.3v5.2h-.587V72.94h.9l2.124,4.975,2.13-4.975h.9v5.838Z" transform="translate(-221.845 -70.284)" fill="#666766"/>
    </g>
  </g>
</svg>
