<svg xmlns="http://www.w3.org/2000/svg" width="225.379" height="57.664" viewBox="0 0 225.379 57.664">
  <g id="LogoGolfGroup" transform="translate(-5.31 -4.46)">
    <path id="Path_1282" data-name="Path 1282" d="M30.4,24.045a3.5,3.5,0,0,0,0,6.991H40.777A11.734,11.734,0,1,1,38.8,21.578l.266.358h7.678l-.584-1.248A18.547,18.547,0,1,0,23.439,46.074l1.086,6.453h-10.3A8.916,8.916,0,0,1,5.31,43.613V13.374A8.916,8.916,0,0,1,14.224,4.46H44.463a8.916,8.916,0,0,1,8.914,8.914V43.613a8.916,8.916,0,0,1-8.914,8.914H36.317l-7.222,9.6,1.7-9.6h1.491l1-5.9A18.558,18.558,0,0,0,47.525,24.744l-.144-.7H30.4Z" transform="translate(0 0)" fill="#fff"/>
    <g id="Group_1183" data-name="Group 1183" transform="translate(60.056 15.922)">
      <g id="Group_1181" data-name="Group 1181" transform="translate(0 1.491)">
        <g id="Group_1180" data-name="Group 1180">
          <path id="Path_1284" data-name="Path 1284" d="M121.2,36.862a10.388,10.388,0,0,1-3.01,7.609,10.881,10.881,0,0,1-15.044.04A10,10,0,0,1,100.07,37.1a9.669,9.669,0,0,1,3.131-7.343,10.97,10.97,0,0,1,13.6-.942,9.076,9.076,0,0,1,3.807,5.1h-5.685a4.7,4.7,0,0,0-4.373-2.565,5.061,5.061,0,0,0-3.929,1.7,5.836,5.836,0,0,0-1.491,4.061,6.154,6.154,0,0,0,1.456,4.189,5.033,5.033,0,0,0,3.992,1.768,5.491,5.491,0,0,0,2.958-.774,4.033,4.033,0,0,0,1.779-2.421H109.4V35.828h11.768c.012.156.017.329.029.526v.508Z" transform="translate(-100.07 -26.884)" fill="#fff"/>
          <path id="Path_1285" data-name="Path 1285" d="M181.96,47.365V27.52h5.067v15.4h5.881v4.449Z" transform="translate(-134.65 -27.15)" fill="#fff"/>
          <path id="Path_1286" data-name="Path 1286" d="M209.189,31.969v3.38h5.76V39.8h-5.76v7.568H204.33V27.52h10.827v4.449Z" transform="translate(-144.096 -27.15)" fill="#fff"/>
          <path id="Path_1287" data-name="Path 1287" d="M247.443,36.862a10.387,10.387,0,0,1-3.01,7.609,10.881,10.881,0,0,1-15.044.04A10,10,0,0,1,226.31,37.1a9.669,9.669,0,0,1,3.131-7.343,10.97,10.97,0,0,1,13.6-.942,9.076,9.076,0,0,1,3.807,5.1h-5.685a4.7,4.7,0,0,0-4.373-2.565,5.061,5.061,0,0,0-3.929,1.7,5.836,5.836,0,0,0-1.491,4.061,6.154,6.154,0,0,0,1.456,4.189,5.033,5.033,0,0,0,3.992,1.768,5.491,5.491,0,0,0,2.958-.774,4.033,4.033,0,0,0,1.779-2.421H235.64V35.828h11.768c.012.156.017.329.029.526v.508Z" transform="translate(-153.377 -26.884)" fill="#fff"/>
          <path id="Path_1288" data-name="Path 1288" d="M276.912,47.365l-4.581-6.4h-.052v6.4H267.42V27.52h6.268c.664,0,1.2.012,1.595.04a12.089,12.089,0,0,1,1.595.168,6.218,6.218,0,0,1,2.918,1.219,6.559,6.559,0,0,1,2.45,5.419,6.56,6.56,0,0,1-1.294,4.073,5.452,5.452,0,0,1-3.64,2.172l5.379,6.754Zm-.5-14.778a3.829,3.829,0,0,0-2.294-.618h-1.849v5.523h1.791q3.328,0,3.328-2.842A2.347,2.347,0,0,0,276.415,32.587Z" transform="translate(-170.737 -27.15)" fill="#fff"/>
          <path id="Path_1289" data-name="Path 1289" d="M314.1,44.53a10.779,10.779,0,0,1-14.755.052,9.45,9.45,0,0,1-3.114-7.164A11.612,11.612,0,0,1,297,33.177a9.213,9.213,0,0,1,1.294-2.224,9.981,9.981,0,0,1,8.394-4.073,10.235,10.235,0,0,1,7.412,2.958,9.8,9.8,0,0,1,3.062,7.331A9.9,9.9,0,0,1,314.1,44.53Zm-3.472-11.416a5.265,5.265,0,0,0-7.846-.052,5.866,5.866,0,0,0-1.491,4.061A5.984,5.984,0,0,0,302.8,41.26a5.06,5.06,0,0,0,3.969,1.768,4.925,4.925,0,0,0,3.865-1.779A5.968,5.968,0,0,0,312.1,37.2,6.056,6.056,0,0,0,310.627,33.114Z" transform="translate(-182.902 -26.88)" fill="#fff"/>
          <path id="Path_1290" data-name="Path 1290" d="M352.333,39.508a13.026,13.026,0,0,1-.341,3.287,6.437,6.437,0,0,1-1.635,2.8,7.429,7.429,0,0,1-5.552,2.149,9.474,9.474,0,0,1-3.091-.485,6.364,6.364,0,0,1-2.617-1.635,6.738,6.738,0,0,1-1.675-2.825,9.267,9.267,0,0,1-.26-1.531c-.035-.456-.052-1.04-.052-1.756V27.52h5.067V39.514a9.891,9.891,0,0,0,.081,1.346,4,4,0,0,0,.352,1.219,2.179,2.179,0,0,0,2.149,1.219,2.142,2.142,0,0,0,2.149-1.19,4,4,0,0,0,.312-1.2c.035-.347.052-.815.052-1.387v-12h5.067V39.508Z" transform="translate(-200.164 -27.15)" fill="#fff"/>
          <path id="Path_1291" data-name="Path 1291" d="M383.99,37.047a5.98,5.98,0,0,1-1.571,2.38,6.5,6.5,0,0,1-2.709,1.415,12.636,12.636,0,0,1-3.079.3h-2.2v6.216H369.57V27.52h6.494c.63,0,1.155.012,1.583.04a14.018,14.018,0,0,1,1.623.185,6.063,6.063,0,0,1,2.906,1.231,6.538,6.538,0,0,1,2.328,5.252A7.758,7.758,0,0,1,383.99,37.047Zm-5.384-4.685a5.251,5.251,0,0,0-2.305-.393h-1.872v4.726h2.057a4.421,4.421,0,0,0,2.213-.445,2.065,2.065,0,0,0,.953-1.935A2,2,0,0,0,378.606,32.361Z" transform="translate(-213.871 -27.15)" fill="#fff"/>
        </g>
      </g>
      <g id="Group_1182" data-name="Group 1182" transform="translate(23.323 0)">
        <circle id="Ellipse_138" data-name="Ellipse 138" cx="1.277" cy="1.277" r="1.277" transform="translate(6.43 13.421)" fill="#fff"/>
        <circle id="Ellipse_139" data-name="Ellipse 139" cx="1.277" cy="1.277" r="1.277" transform="translate(12.554 15.974)" fill="#fff"/>
        <circle id="Ellipse_140" data-name="Ellipse 140" cx="1.277" cy="1.277" r="1.277" transform="translate(2.415 7.193)" fill="#fff"/>
        <circle id="Ellipse_141" data-name="Ellipse 141" cx="0.901" cy="0.901" r="0.901" transform="translate(2.79 13.068)" fill="#fff"/>
        <circle id="Ellipse_142" data-name="Ellipse 142" cx="0.901" cy="0.901" r="0.901" transform="translate(8.683 17.8)" fill="#fff"/>
        <path id="Path_1292" data-name="Path 1292" d="M151.5,24.3a11.058,11.058,0,1,0,11.058,11.058A11.073,11.073,0,0,0,151.5,24.3Zm5.09,14.189a1.283,1.283,0,0,1,1.8-.243,1.255,1.255,0,0,1,.48,1.092,1.241,1.241,0,0,0-.451-.711,1.282,1.282,0,0,0-1.8.243,1.247,1.247,0,0,0-.237.711A1.263,1.263,0,0,1,156.588,38.489Zm-3.709-2.38a1.393,1.393,0,0,1,1.392,1.392,1.351,1.351,0,0,1-.624,1.127,1.354,1.354,0,0,0,.318-.855,1.393,1.393,0,0,0-1.392-1.392,1.327,1.327,0,0,0-.768.266A1.371,1.371,0,0,1,152.879,36.109Zm-1.381,9.44a10.185,10.185,0,0,1-3.276-19.834,10.393,10.393,0,0,0-.41,2.8,1.123,1.123,0,0,0-.139-.012,1.277,1.277,0,1,0,0,2.554,1.228,1.228,0,0,0,.41-.075q.1.459.243.9a2.05,2.05,0,1,0,1.935,3.507,10.356,10.356,0,0,0,1.086,1.109,1.836,1.836,0,1,0,3.1,1.941,10.728,10.728,0,0,0,1.6.5,1.342,1.342,0,0,0-.023.214,1.572,1.572,0,0,0,3.143.029,10.623,10.623,0,0,0,1.878-.318A10.189,10.189,0,0,1,151.5,45.549Z" transform="translate(-140.44 -24.3)" fill="#fff"/>
      </g>
    </g>
    <g id="Group_1184" data-name="Group 1184" transform="translate(84.933 41.747)">
      <path id="Path_1293" data-name="Path 1293" d="M146.221,77.943V75.6h-2.588v2.346h-.5v-5h.5v2.207h2.588V72.94h.5v5Z" transform="translate(-143.13 -70.664)" fill="#fff"/>
      <path id="Path_1294" data-name="Path 1294" d="M151.75,77.023v-5h2.738v.456h-2.236v1.8h2.161v.456h-2.161v1.843h2.236v.451Zm1.935-5.419-.583-.5-.6.5h-.612l.982-.843h.445l.965.843Zm-.815,6.69v-.855h.5v.855Z" transform="translate(-146.77 -69.743)" fill="#fff"/>
      <path id="Path_1295" data-name="Path 1295" d="M164.716,77.545a1.474,1.474,0,0,1-1.063.422,1.528,1.528,0,0,1-1.1-.41,1.47,1.47,0,0,1-.445-1.08h.5a.942.942,0,0,0,1.04,1.034.981.981,0,0,0,.711-.283.968.968,0,0,0,.295-.711.877.877,0,0,0-.352-.728,1.581,1.581,0,0,0-.358-.2,3.589,3.589,0,0,0-.4-.139q-.312-.1-.5-.173a1.6,1.6,0,0,1-.41-.237,1.117,1.117,0,0,1-.381-.907,1.27,1.27,0,0,1,.41-.965,1.418,1.418,0,0,1,.994-.376,1.351,1.351,0,0,1,.982.387,1.3,1.3,0,0,1,.4.976h-.5a.877.877,0,0,0-.26-.636.844.844,0,0,0-.63-.272.885.885,0,0,0-.641.248.817.817,0,0,0-.266.624.72.72,0,0,0,.4.664,1.674,1.674,0,0,0,.387.156l.4.121a1.891,1.891,0,0,1,.884.514,1.317,1.317,0,0,1,.341.936A1.359,1.359,0,0,1,164.716,77.545Z" transform="translate(-151.145 -70.6)" fill="#fff"/>
      <path id="Path_1296" data-name="Path 1296" d="M169.26,77.943v-5h.5v5Z" transform="translate(-154.164 -70.664)" fill="#fff"/>
      <path id="Path_1297" data-name="Path 1297" d="M176.074,77.943l-2.97-4.4h-.012v4.4h-.5v-5h.676l2.79,4.154h.012V72.94h.5v5Z" transform="translate(-155.57 -70.664)" fill="#fff"/>
      <path id="Path_1298" data-name="Path 1298" d="M185.051,77.943V75.6h-2.588v2.346h-.5v-5h.5v2.207h2.588V72.94h.5v5Z" transform="translate(-159.527 -70.664)" fill="#fff"/>
      <path id="Path_1299" data-name="Path 1299" d="M195.432,73.4v4.547h-.5V73.4h-1.15V72.94h2.79V73.4Z" transform="translate(-164.518 -70.664)" fill="#fff"/>
      <path id="Path_1300" data-name="Path 1300" d="M203.371,77.943V75.6h-2.588v2.346h-.5v-5h.5v2.207h2.588V72.94h.5v5Z" transform="translate(-167.263 -70.664)" fill="#fff"/>
      <path id="Path_1301" data-name="Path 1301" d="M212.528,76.913l-.728-1.681h-2.322l-.728,1.681h-.52l2.138-5h.56l2.149,5h-.549Zm-1.883-4.431-.982,2.3H211.6Zm-.508-.855-.225-.387,1.346-.739.214.4Z" transform="translate(-170.62 -69.633)" fill="#fff"/>
      <path id="Path_1302" data-name="Path 1302" d="M218.33,77.943v-5h.5v5Z" transform="translate(-174.885 -70.664)" fill="#fff"/>
      <path id="Path_1303" data-name="Path 1303" d="M230.527,75.58a2.47,2.47,0,0,1-.849,1.7,2.708,2.708,0,0,1-3.669-.069,2.5,2.5,0,0,1-.006-3.68,2.637,2.637,0,0,1,1.878-.745,2.6,2.6,0,0,1,2.045.919,1.726,1.726,0,0,1,.324.5h-.584a1.856,1.856,0,0,0-.763-.711,2.191,2.191,0,0,0-1.017-.254,2.129,2.129,0,0,0-1.537.624,2.1,2.1,0,0,0,.006,3.039,2.193,2.193,0,0,0,1.548.612,2.157,2.157,0,0,0,1.259-.41,1.9,1.9,0,0,0,.768-1.069h-2.79v-.451h3.386Z" transform="translate(-177.786 -70.6)" fill="#fff"/>
      <path id="Path_1304" data-name="Path 1304" d="M240.636,77.215a2.673,2.673,0,0,1-3.709.006,2.432,2.432,0,0,1-.8-1.82,2.513,2.513,0,0,1,.774-1.855,2.679,2.679,0,0,1,3.726-.006,2.466,2.466,0,0,1,.791,1.837A2.44,2.44,0,0,1,240.636,77.215Zm-.347-3.345a2.134,2.134,0,0,0-3.033.006,2.112,2.112,0,0,0-.624,1.525,2.007,2.007,0,0,0,.641,1.491,2.064,2.064,0,0,0,1.5.618,2.086,2.086,0,0,0,1.514-.624,2.107,2.107,0,0,0,0-3.016Z" transform="translate(-182.401 -70.6)" fill="#fff"/>
      <path id="Path_1305" data-name="Path 1305" d="M247.45,77.943v-5h.5v4.553h2.068v.451Z" transform="translate(-187.181 -70.664)" fill="#fff"/>
      <path id="Path_1306" data-name="Path 1306" d="M253.923,73.4V75.21h1.953v.451h-1.953v2.282h-.5v-5h2.531V73.4Z" transform="translate(-189.702 -70.664)" fill="#fff"/>
      <path id="Path_1307" data-name="Path 1307" d="M266.9,77.943V75.6h-2.588v2.346h-.5v-5h.5v2.207H266.9V72.94h.5v5Z" transform="translate(-194.089 -70.664)" fill="#fff"/>
      <path id="Path_1308" data-name="Path 1308" d="M276.058,76.913l-.728-1.681h-2.322l-.728,1.681h-.52l2.138-5h.56l2.149,5h-.549Zm-1.883-4.431-.982,2.3h1.941Zm.531-.855-1.34-.722.22-.4,1.346.739Z" transform="translate(-197.446 -69.633)" fill="#fff"/>
      <path id="Path_1309" data-name="Path 1309" d="M285.334,77.943l-2.97-4.4h-.012v4.4h-.5v-5h.676l2.79,4.154h.012V72.94h.5v5Z" transform="translate(-201.707 -70.664)" fill="#fff"/>
      <path id="Path_1310" data-name="Path 1310" d="M296.127,75.58a2.47,2.47,0,0,1-.849,1.7,2.708,2.708,0,0,1-3.669-.069,2.5,2.5,0,0,1-.006-3.68,2.637,2.637,0,0,1,1.878-.745,2.6,2.6,0,0,1,2.045.919,1.728,1.728,0,0,1,.324.5h-.584a1.856,1.856,0,0,0-.763-.711,2.191,2.191,0,0,0-1.017-.254,2.129,2.129,0,0,0-1.537.624,2.1,2.1,0,0,0,.006,3.039,2.193,2.193,0,0,0,1.548.612,2.156,2.156,0,0,0,1.259-.41,1.9,1.9,0,0,0,.768-1.069h-2.79v-.451h3.385Z" transform="translate(-205.486 -70.6)" fill="#fff"/>
      <path id="Path_1311" data-name="Path 1311" d="M305.74,75.137V72.93H307.2a3.7,3.7,0,0,1,.843.1,2.68,2.68,0,0,1,.78.312,2.485,2.485,0,0,1,0,4.177,2.51,2.51,0,0,1-.786.318,3.742,3.742,0,0,1-.844.1h-1.462V75.588h-.4v-.451Zm.5.456v1.895h.832c.168,0,.306-.006.428-.012a2.694,2.694,0,0,0,.41-.058,2.051,2.051,0,0,0,.768-.335,1.826,1.826,0,0,0,.589-.734,2.17,2.17,0,0,0,.2-.919,1.9,1.9,0,0,0-.849-1.658,1.937,1.937,0,0,0-.791-.318,4.131,4.131,0,0,0-.428-.052c-.121-.006-.266-.012-.433-.012h-.722v1.751h1.519v.451h-1.519Z" transform="translate(-211.622 -70.66)" fill="#fff"/>
      <path id="Path_1312" data-name="Path 1312" d="M319.028,76.279,318.3,74.6h-2.322l-.728,1.681h-.52l2.138-5h.56l2.149,5h-.549ZM317.74,70.86l-.584-.5-.6.5h-.612l.982-.843h.445l.965.843Zm-.6.988-.982,2.3H318.1Zm.826-1.722-1.34-.722.219-.4,1.346.739Z" transform="translate(-215.591 -69)" fill="#fff"/>
      <path id="Path_1313" data-name="Path 1313" d="M328.233,76.06a3.144,3.144,0,0,1-.04.532,1.958,1.958,0,0,1-.15.508,1.692,1.692,0,0,1-3.027,0,1.96,1.96,0,0,1-.144-.508,3.151,3.151,0,0,1-.04-.532V72.94h.5v3.12a2.949,2.949,0,0,0,.035.462,1.455,1.455,0,0,0,.133.445,1.179,1.179,0,0,0,2.068,0,1.313,1.313,0,0,0,.133-.445,2.949,2.949,0,0,0,.035-.462V72.94h.5Z" transform="translate(-219.856 -70.664)" fill="#fff"/>
      <path id="Path_1314" data-name="Path 1314" d="M338.9,77.943h-.491l-2.062-5h.555l1.762,4.385,1.774-4.385h.543Z" transform="translate(-224.721 -70.664)" fill="#fff"/>
      <path id="Path_1315" data-name="Path 1315" d="M346.05,77.943v-5h.5v5Z" transform="translate(-228.817 -70.664)" fill="#fff"/>
      <path id="Path_1316" data-name="Path 1316" d="M349.33,77.023v-5h2.738v.456h-2.236v1.8h2.161v.456h-2.161v1.843h2.236v.451Zm1.93-5.419-.583-.5-.6.5h-.612l.982-.843h.445l.965.843Zm-.815,6.69v-.855h.5v.855Z" transform="translate(-230.202 -69.743)" fill="#fff"/>
      <path id="Path_1317" data-name="Path 1317" d="M357.2,73.4v4.547h-.5V73.4h-1.15V72.94h2.79V73.4Z" transform="translate(-232.828 -70.664)" fill="#fff"/>
      <path id="Path_1318" data-name="Path 1318" d="M369.464,77.943l-2.97-4.4h-.012v4.4h-.5v-5h.676l2.79,4.154h.012V72.94h.5v5Z" transform="translate(-237.232 -70.664)" fill="#fff"/>
      <path id="Path_1319" data-name="Path 1319" d="M378.908,77.943l-.728-1.681h-2.322l-.728,1.681h-.52l2.138-5h.56l2.149,5Zm-1.883-4.431-.982,2.3h1.941Z" transform="translate(-240.877 -70.664)" fill="#fff"/>
      <path id="Path_1320" data-name="Path 1320" d="M389.4,77.943V73.489h-.012l-1.872,4.454h-.427l-1.86-4.454h-.012v4.454h-.5v-5h.768L387.3,77.2l1.826-4.264h.774v5Z" transform="translate(-245.141 -70.664)" fill="#fff"/>
    </g>
  </g>
</svg>
